<svg xmlns="http://www.w3.org/2000/svg" width="3600" height="1800" viewBox="0 0 3600 1800" role="img" aria-label="FORIF logo">
  <path fill="#000" fill-rule="evenodd" d="M2834 385 L2863 385 L2863 386 L2868 386 L2868 387 L2876 388 L2876 389 L2881 390 L2881 391 L2889 394 L2890 396 L2894 397 L2896 400 L2898 400 L2909 411 L2909 413 L2912 415 L2912 417 L2914 418 L2914 420 L2916 421 L2916 423 L2917 423 L2917 425 L2919 427 L2919 430 L2920 430 L2921 435 L2922 435 L2923 443 L2924 443 L2925 466 L2924 466 L2924 472 L2923 472 L2921 483 L2920 483 L2920 485 L2918 487 L2918 490 L2916 491 L2914 497 L2908 503 L2908 505 L2899 514 L2897 514 L2895 517 L2893 517 L2892 519 L2888 520 L2887 522 L2885 522 L2883 524 L2880 524 L2878 526 L2872 527 L2872 528 L2867 528 L2867 529 L2861 529 L2861 530 L2842 530 L2842 531 L2833 531 L2833 532 L2821 533 L2821 534 L2813 535 L2813 536 L2810 536 L2810 537 L2798 540 L2798 541 L2796 541 L2794 543 L2791 543 L2791 544 L2783 547 L2782 549 L2776 551 L2775 553 L2773 553 L2772 555 L2767 557 L2765 560 L2763 560 L2759 565 L2757 565 L2741 581 L2741 583 L2734 590 L2734 592 L2732 593 L2732 595 L2730 596 L2729 600 L2727 601 L2725 607 L2722 610 L2722 613 L2721 613 L2721 615 L2720 615 L2720 617 L2718 619 L2718 622 L2716 624 L2716 627 L2715 627 L2715 630 L2714 630 L2714 633 L2713 633 L2713 637 L2712 637 L2710 648 L2709 648 L2709 651 L2708 651 L2706 663 L2705 663 L2705 666 L2704 666 L2702 678 L2701 678 L2699 689 L2698 689 L2698 692 L2697 692 L2695 704 L2694 704 L2694 707 L2693 707 L2691 719 L2690 719 L2690 722 L2689 722 L2687 734 L2686 734 L2684 745 L2683 745 L2683 748 L2682 748 L2680 760 L2679 760 L2679 763 L2678 763 L2676 775 L2675 775 L2673 786 L2672 786 L2672 789 L2671 789 L2671 793 L2670 793 L2669 801 L2668 801 L2668 804 L2667 804 L2667 808 L2666 808 L2665 816 L2664 816 L2664 819 L2663 819 L2663 823 L2662 823 L2660 834 L2846 834 L2846 835 L2851 835 L2851 836 L2855 836 L2855 837 L2861 838 L2863 840 L2866 840 L2866 841 L2870 842 L2871 844 L2875 845 L2876 847 L2878 847 L2882 852 L2884 852 L2890 858 L2890 860 L2894 863 L2894 865 L2896 866 L2897 870 L2899 871 L2899 873 L2900 873 L2900 875 L2902 877 L2902 880 L2903 880 L2903 883 L2904 883 L2904 886 L2905 886 L2905 889 L2906 889 L2907 906 L2908 907 L2907 907 L2906 923 L2905 923 L2905 927 L2904 927 L2904 930 L2903 930 L2903 933 L2901 935 L2900 940 L2898 941 L2898 943 L2895 946 L2895 948 L2893 949 L2893 951 L2880 964 L2878 964 L2876 967 L2874 967 L2873 969 L2871 969 L2871 970 L2869 970 L2869 971 L2867 971 L2867 972 L2865 972 L2863 974 L2860 974 L2860 975 L2857 975 L2857 976 L2854 976 L2854 977 L2850 977 L2850 978 L2844 978 L2844 979 L2621 979 L2619 987 L2618 987 L2617 995 L2616 995 L2616 998 L2615 998 L2613 1010 L2612 1010 L2612 1013 L2611 1013 L2609 1025 L2608 1025 L2608 1028 L2607 1028 L2605 1040 L2604 1040 L2604 1043 L2603 1043 L2602 1051 L2601 1051 L2601 1054 L2600 1054 L2598 1066 L2597 1066 L2597 1069 L2596 1069 L2594 1081 L2593 1081 L2593 1084 L2592 1084 L2590 1096 L2589 1096 L2589 1099 L2588 1099 L2587 1107 L2586 1107 L2586 1110 L2585 1110 L2583 1122 L2582 1122 L2582 1125 L2581 1125 L2579 1137 L2578 1137 L2578 1140 L2577 1140 L2575 1152 L2574 1152 L2572 1163 L2571 1163 L2571 1166 L2570 1166 L2568 1178 L2567 1178 L2567 1181 L2566 1181 L2564 1193 L2563 1193 L2561 1204 L2560 1204 L2560 1207 L2559 1207 L2559 1211 L2558 1211 L2555 1223 L2553 1225 L2553 1228 L2551 1230 L2551 1233 L2549 1235 L2549 1238 L2548 1238 L2548 1240 L2546 1242 L2546 1245 L2545 1245 L2545 1247 L2544 1247 L2544 1249 L2543 1249 L2543 1251 L2542 1251 L2542 1253 L2541 1253 L2541 1255 L2540 1255 L2536 1265 L2534 1266 L2533 1270 L2531 1271 L2529 1277 L2527 1278 L2527 1280 L2525 1281 L2525 1283 L2523 1284 L2523 1286 L2521 1287 L2519 1292 L2516 1294 L2514 1299 L2510 1302 L2510 1304 L2506 1307 L2506 1309 L2501 1313 L2501 1315 L2491 1324 L2491 1326 L2483 1334 L2481 1334 L2472 1344 L2470 1344 L2465 1350 L2463 1350 L2460 1354 L2458 1354 L2452 1360 L2450 1360 L2449 1362 L2447 1362 L2446 1364 L2444 1364 L2443 1366 L2441 1366 L2440 1368 L2438 1368 L2434 1372 L2430 1373 L2429 1375 L2423 1377 L2422 1379 L2420 1379 L2420 1380 L2418 1380 L2418 1381 L2416 1381 L2416 1382 L2414 1382 L2414 1383 L2412 1383 L2412 1384 L2410 1384 L2410 1385 L2408 1385 L2408 1386 L2406 1386 L2406 1387 L2404 1387 L2404 1388 L2402 1388 L2402 1389 L2400 1389 L2398 1391 L2395 1391 L2395 1392 L2393 1392 L2391 1394 L2388 1394 L2388 1395 L2385 1395 L2383 1397 L2380 1397 L2380 1398 L2377 1398 L2377 1399 L2374 1399 L2374 1400 L2371 1400 L2371 1401 L2368 1401 L2368 1402 L2365 1402 L2365 1403 L2362 1403 L2362 1404 L2358 1404 L2358 1405 L2355 1405 L2355 1406 L2351 1406 L2351 1407 L2347 1407 L2347 1408 L2342 1408 L2342 1409 L2337 1409 L2337 1410 L2332 1410 L2332 1411 L2326 1411 L2326 1412 L2311 1413 L2311 1414 L2270 1415 L2270 1414 L2264 1414 L2264 1413 L2261 1413 L2261 1412 L2257 1412 L2255 1410 L2252 1410 L2252 1409 L2242 1405 L2237 1400 L2235 1400 L2223 1388 L2223 1386 L2220 1384 L2219 1380 L2217 1379 L2217 1377 L2216 1377 L2216 1375 L2215 1375 L2215 1373 L2213 1371 L2213 1368 L2212 1368 L2212 1365 L2211 1365 L2211 1362 L2210 1362 L2210 1358 L2209 1358 L2209 1352 L2208 1352 L2208 1333 L2209 1333 L2210 1323 L2211 1323 L2211 1320 L2212 1320 L2212 1317 L2214 1315 L2214 1312 L2215 1312 L2216 1308 L2218 1307 L2219 1303 L2224 1298 L2224 1296 L2234 1286 L2236 1286 L2238 1283 L2240 1283 L2241 1281 L2245 1280 L2246 1278 L2248 1278 L2250 1276 L2253 1276 L2255 1274 L2261 1273 L2261 1272 L2265 1272 L2265 1271 L2271 1271 L2271 1270 L2291 1270 L2291 1269 L2301 1269 L2301 1268 L2312 1267 L2312 1266 L2324 1264 L2324 1263 L2330 1262 L2332 1260 L2335 1260 L2337 1258 L2340 1258 L2340 1257 L2342 1257 L2342 1256 L2352 1252 L2353 1250 L2357 1249 L2358 1247 L2360 1247 L2361 1245 L2363 1245 L2367 1241 L2369 1241 L2372 1237 L2374 1237 L2393 1218 L2393 1216 L2396 1214 L2396 1212 L2399 1210 L2399 1208 L2402 1206 L2403 1202 L2405 1201 L2406 1197 L2408 1196 L2408 1194 L2409 1194 L2409 1192 L2410 1192 L2410 1190 L2411 1190 L2411 1188 L2412 1188 L2412 1186 L2414 1184 L2416 1176 L2418 1174 L2418 1171 L2419 1171 L2419 1168 L2420 1168 L2420 1164 L2421 1164 L2421 1161 L2422 1161 L2422 1157 L2423 1157 L2423 1153 L2424 1153 L2424 1150 L2425 1150 L2427 1138 L2428 1138 L2428 1135 L2429 1135 L2431 1123 L2432 1123 L2432 1120 L2433 1120 L2435 1108 L2436 1108 L2436 1105 L2437 1105 L2438 1097 L2439 1097 L2439 1094 L2440 1094 L2442 1082 L2443 1082 L2443 1079 L2444 1079 L2446 1067 L2447 1067 L2448 1060 L2449 1060 L2450 1052 L2451 1052 L2451 1049 L2452 1049 L2453 1041 L2454 1041 L2454 1038 L2455 1038 L2457 1026 L2458 1026 L2458 1023 L2459 1023 L2459 1019 L2460 1019 L2460 1015 L2461 1015 L2461 1011 L2462 1011 L2462 1008 L2463 1008 L2463 1004 L2464 1004 L2464 1000 L2465 1000 L2465 996 L2466 996 L2466 993 L2467 993 L2467 989 L2468 989 L2468 985 L2469 985 L2470 979 L2067 979 L2067 980 L2051 981 L2051 982 L2046 982 L2046 983 L2042 983 L2042 984 L2039 984 L2039 985 L2035 985 L2035 986 L2026 988 L2024 990 L2021 990 L2021 991 L2019 991 L2019 992 L2017 992 L2017 993 L2015 993 L2015 994 L2013 994 L2013 995 L2003 999 L2002 1001 L2000 1001 L1999 1003 L1994 1005 L1992 1008 L1990 1008 L1988 1011 L1986 1011 L1982 1016 L1980 1016 L1970 1026 L1970 1028 L1965 1032 L1965 1034 L1961 1037 L1961 1039 L1959 1040 L1959 1042 L1957 1043 L1957 1045 L1953 1049 L1953 1051 L1952 1051 L1951 1055 L1949 1056 L1949 1058 L1947 1060 L1947 1063 L1946 1063 L1946 1065 L1945 1065 L1945 1067 L1943 1069 L1943 1072 L1942 1072 L1942 1075 L1940 1077 L1939 1084 L1938 1084 L1938 1087 L1937 1087 L1936 1095 L1935 1095 L1935 1098 L1934 1098 L1932 1110 L1931 1110 L1931 1113 L1930 1113 L1928 1125 L1927 1125 L1927 1128 L1926 1128 L1924 1140 L1923 1140 L1921 1151 L1920 1151 L1920 1154 L1919 1154 L1919 1158 L1918 1158 L1917 1166 L1916 1166 L1916 1169 L1915 1169 L1913 1181 L1912 1181 L1912 1184 L1911 1184 L1909 1196 L1908 1196 L1908 1199 L1907 1199 L1907 1203 L1906 1203 L1906 1207 L1905 1207 L1905 1210 L1904 1210 L1902 1222 L1901 1222 L1901 1225 L1900 1225 L1898 1237 L1897 1237 L1895 1248 L1894 1248 L1894 1251 L1893 1251 L1891 1263 L1890 1263 L1890 1266 L1889 1266 L1889 1270 L1888 1270 L1887 1278 L1886 1278 L1886 1281 L1885 1281 L1883 1293 L1882 1293 L1880 1304 L1879 1304 L1879 1307 L1878 1307 L1878 1311 L1877 1311 L1876 1319 L1875 1319 L1875 1322 L1874 1322 L1872 1334 L1871 1334 L1871 1337 L1870 1337 L1868 1349 L1867 1349 L1867 1352 L1866 1352 L1865 1360 L1864 1360 L1862 1369 L1861 1369 L1861 1371 L1860 1371 L1856 1381 L1854 1382 L1852 1387 L1847 1391 L1847 1393 L1844 1396 L1842 1396 L1838 1401 L1836 1401 L1832 1405 L1830 1405 L1830 1406 L1828 1406 L1828 1407 L1826 1407 L1826 1408 L1824 1408 L1824 1409 L1822 1409 L1820 1411 L1817 1411 L1817 1412 L1814 1412 L1814 1413 L1810 1413 L1810 1414 L1804 1414 L1804 1415 L1783 1415 L1783 1414 L1778 1414 L1778 1413 L1770 1412 L1768 1410 L1765 1410 L1765 1409 L1757 1406 L1756 1404 L1751 1402 L1749 1399 L1747 1399 L1737 1389 L1737 1387 L1734 1385 L1734 1383 L1732 1382 L1731 1378 L1729 1377 L1729 1375 L1727 1373 L1727 1370 L1725 1368 L1725 1365 L1724 1365 L1724 1361 L1723 1361 L1723 1357 L1722 1357 L1722 1351 L1721 1351 L1721 1335 L1722 1335 L1723 1324 L1724 1324 L1724 1320 L1725 1320 L1725 1317 L1726 1317 L1728 1305 L1729 1305 L1729 1302 L1730 1302 L1732 1290 L1733 1290 L1735 1279 L1736 1279 L1736 1276 L1737 1276 L1739 1264 L1740 1264 L1740 1261 L1741 1261 L1743 1249 L1744 1249 L1746 1238 L1747 1238 L1747 1235 L1748 1235 L1750 1223 L1751 1223 L1751 1220 L1752 1220 L1754 1208 L1755 1208 L1755 1205 L1756 1205 L1758 1193 L1759 1193 L1759 1190 L1760 1190 L1760 1186 L1761 1186 L1761 1182 L1762 1182 L1762 1179 L1763 1179 L1765 1167 L1766 1167 L1766 1164 L1767 1164 L1769 1152 L1770 1152 L1770 1149 L1771 1149 L1771 1145 L1772 1145 L1772 1141 L1773 1141 L1773 1138 L1774 1138 L1776 1126 L1777 1126 L1777 1123 L1778 1123 L1780 1111 L1781 1111 L1781 1108 L1782 1108 L1782 1104 L1783 1104 L1783 1100 L1784 1100 L1784 1097 L1785 1097 L1787 1085 L1788 1085 L1788 1082 L1789 1082 L1791 1070 L1792 1070 L1792 1067 L1793 1067 L1794 1059 L1795 1059 L1797 1048 L1798 1048 L1798 1045 L1799 1045 L1799 1041 L1800 1041 L1800 1038 L1801 1038 L1801 1035 L1802 1035 L1805 1023 L1807 1021 L1808 1015 L1809 1015 L1809 1013 L1811 1011 L1811 1008 L1812 1008 L1812 1006 L1813 1006 L1813 1004 L1814 1004 L1814 1002 L1815 1002 L1815 1000 L1816 1000 L1816 998 L1818 996 L1818 993 L1820 992 L1820 990 L1821 990 L1825 980 L1827 979 L1827 977 L1830 974 L1831 970 L1833 969 L1833 967 L1835 966 L1835 964 L1837 963 L1839 958 L1842 956 L1844 951 L1848 948 L1848 946 L1856 938 L1856 936 L1863 930 L1863 928 L1882 909 L1884 909 L1890 902 L1892 902 L1895 898 L1897 898 L1900 894 L1902 894 L1908 888 L1910 888 L1911 886 L1913 886 L1914 884 L1916 884 L1917 882 L1919 882 L1923 878 L1927 877 L1928 875 L1932 874 L1933 872 L1939 870 L1940 868 L1942 868 L1942 867 L1944 867 L1944 866 L1946 866 L1946 865 L1948 865 L1948 864 L1950 864 L1950 863 L1952 863 L1952 862 L1954 862 L1956 860 L1959 860 L1959 859 L1961 859 L1961 858 L1963 858 L1965 856 L1968 856 L1968 855 L1973 854 L1975 852 L1978 852 L1978 851 L1981 851 L1981 850 L1984 850 L1984 849 L1987 849 L1987 848 L1990 848 L1990 847 L1993 847 L1993 846 L1996 846 L1996 845 L2000 845 L2000 844 L2003 844 L2003 843 L2007 843 L2007 842 L2011 842 L2011 841 L2016 841 L2016 840 L2020 840 L2020 839 L2026 839 L2026 838 L2038 837 L2038 836 L2046 836 L2046 835 L2056 835 L2056 834 L2509 834 L2510 828 L2511 828 L2511 825 L2512 825 L2512 821 L2513 821 L2513 817 L2514 817 L2514 814 L2515 814 L2517 802 L2518 802 L2518 799 L2519 799 L2521 787 L2522 787 L2522 784 L2523 784 L2524 776 L2525 776 L2525 773 L2526 773 L2528 761 L2529 761 L2529 758 L2530 758 L2532 746 L2533 746 L2533 743 L2534 743 L2536 731 L2537 731 L2537 728 L2538 728 L2539 720 L2540 720 L2540 717 L2541 717 L2543 705 L2544 705 L2544 702 L2545 702 L2547 690 L2548 690 L2550 679 L2551 679 L2551 676 L2552 676 L2554 664 L2555 664 L2555 661 L2556 661 L2558 649 L2559 649 L2559 646 L2560 646 L2562 634 L2563 634 L2565 623 L2566 623 L2566 620 L2567 620 L2569 608 L2570 608 L2572 597 L2573 597 L2573 594 L2574 594 L2574 590 L2575 590 L2578 578 L2580 576 L2581 570 L2583 568 L2583 565 L2584 565 L2584 563 L2586 561 L2586 558 L2587 558 L2587 556 L2588 556 L2588 554 L2589 554 L2589 552 L2591 550 L2591 547 L2592 547 L2593 543 L2595 542 L2595 540 L2596 540 L2599 532 L2601 531 L2603 525 L2605 524 L2605 522 L2607 521 L2607 519 L2609 518 L2610 514 L2613 512 L2613 510 L2615 509 L2617 504 L2624 497 L2624 495 L2628 492 L2628 490 L2634 485 L2634 483 L2660 457 L2662 457 L2666 452 L2668 452 L2672 447 L2674 447 L2680 441 L2685 439 L2687 436 L2689 436 L2690 434 L2692 434 L2696 430 L2700 429 L2701 427 L2705 426 L2706 424 L2710 423 L2711 421 L2713 421 L2713 420 L2715 420 L2715 419 L2717 419 L2717 418 L2719 418 L2719 417 L2721 417 L2721 416 L2723 416 L2723 415 L2725 415 L2725 414 L2727 414 L2727 413 L2729 413 L2729 412 L2731 412 L2733 410 L2736 410 L2736 409 L2738 409 L2740 407 L2743 407 L2745 405 L2748 405 L2750 403 L2753 403 L2753 402 L2756 402 L2756 401 L2759 401 L2759 400 L2762 400 L2762 399 L2765 399 L2765 398 L2768 398 L2768 397 L2772 397 L2772 396 L2775 396 L2775 395 L2779 395 L2779 394 L2783 394 L2783 393 L2787 393 L2787 392 L2791 392 L2791 391 L2801 390 L2801 389 L2814 388 L2814 387 L2822 387 L2822 386 L2834 386 Z M1391 834 L1437 834 L1437 835 L1447 835 L1447 836 L1455 836 L1455 837 L1461 837 L1461 838 L1477 840 L1477 841 L1493 844 L1493 845 L1496 845 L1496 846 L1499 846 L1499 847 L1503 847 L1505 849 L1508 849 L1508 850 L1517 852 L1519 854 L1522 854 L1524 856 L1527 856 L1527 857 L1529 857 L1529 858 L1531 858 L1533 860 L1536 860 L1536 861 L1538 861 L1538 862 L1540 862 L1540 863 L1542 863 L1542 864 L1552 868 L1553 870 L1559 872 L1560 874 L1564 875 L1565 877 L1569 878 L1570 880 L1572 880 L1573 882 L1575 882 L1576 884 L1581 886 L1583 889 L1585 889 L1587 892 L1589 892 L1591 895 L1593 895 L1596 899 L1598 899 L1602 904 L1604 904 L1611 912 L1613 912 L1626 925 L1626 927 L1640 941 L1640 943 L1644 946 L1644 948 L1650 954 L1650 956 L1652 957 L1652 959 L1654 960 L1654 962 L1656 963 L1656 965 L1658 966 L1658 968 L1662 972 L1663 976 L1665 977 L1666 981 L1668 982 L1668 984 L1669 984 L1669 986 L1670 986 L1670 988 L1671 988 L1671 990 L1672 990 L1672 992 L1673 992 L1673 994 L1674 994 L1674 996 L1675 996 L1675 998 L1676 998 L1676 1000 L1677 1000 L1677 1002 L1678 1002 L1678 1004 L1679 1004 L1679 1006 L1681 1008 L1681 1011 L1682 1011 L1683 1016 L1685 1018 L1685 1021 L1687 1023 L1687 1026 L1688 1026 L1688 1029 L1689 1029 L1689 1032 L1690 1032 L1690 1035 L1691 1035 L1691 1038 L1692 1038 L1692 1041 L1693 1041 L1693 1044 L1694 1044 L1694 1048 L1695 1048 L1695 1051 L1696 1051 L1697 1060 L1698 1060 L1698 1064 L1699 1064 L1700 1074 L1701 1074 L1702 1087 L1703 1087 L1703 1096 L1704 1096 L1704 1110 L1705 1110 L1704 1153 L1703 1153 L1703 1162 L1702 1162 L1701 1175 L1700 1175 L1700 1180 L1699 1180 L1699 1185 L1698 1185 L1698 1189 L1697 1189 L1694 1205 L1693 1205 L1693 1208 L1692 1208 L1692 1211 L1691 1211 L1691 1214 L1690 1214 L1687 1226 L1686 1226 L1685 1231 L1683 1233 L1683 1236 L1681 1238 L1681 1241 L1680 1241 L1680 1243 L1679 1243 L1679 1245 L1678 1245 L1678 1247 L1677 1247 L1677 1249 L1676 1249 L1676 1251 L1675 1251 L1675 1253 L1674 1253 L1674 1255 L1673 1255 L1669 1265 L1667 1266 L1665 1272 L1663 1273 L1662 1277 L1660 1278 L1660 1280 L1658 1281 L1658 1283 L1656 1284 L1656 1286 L1654 1287 L1652 1292 L1649 1294 L1649 1296 L1643 1302 L1643 1304 L1639 1307 L1639 1309 L1634 1313 L1634 1315 L1625 1323 L1625 1325 L1615 1335 L1613 1335 L1604 1345 L1602 1345 L1593 1354 L1591 1354 L1589 1357 L1587 1357 L1581 1363 L1579 1363 L1578 1365 L1576 1365 L1572 1369 L1568 1370 L1564 1374 L1562 1374 L1559 1377 L1551 1380 L1550 1382 L1548 1382 L1548 1383 L1546 1383 L1546 1384 L1544 1384 L1544 1385 L1542 1385 L1542 1386 L1540 1386 L1538 1388 L1535 1388 L1535 1389 L1533 1389 L1533 1390 L1531 1390 L1529 1392 L1526 1392 L1526 1393 L1524 1393 L1522 1395 L1516 1396 L1514 1398 L1511 1398 L1511 1399 L1508 1399 L1508 1400 L1505 1400 L1505 1401 L1502 1401 L1502 1402 L1499 1402 L1499 1403 L1496 1403 L1496 1404 L1492 1404 L1492 1405 L1489 1405 L1489 1406 L1485 1406 L1485 1407 L1481 1407 L1481 1408 L1476 1408 L1476 1409 L1472 1409 L1472 1410 L1467 1410 L1467 1411 L1454 1412 L1454 1413 L1446 1413 L1446 1414 L1436 1414 L1436 1415 L1392 1415 L1392 1414 L1382 1414 L1382 1413 L1374 1413 L1374 1412 L1367 1412 L1367 1411 L1362 1411 L1362 1410 L1356 1410 L1356 1409 L1347 1408 L1347 1407 L1343 1407 L1343 1406 L1340 1406 L1340 1405 L1332 1404 L1332 1403 L1329 1403 L1329 1402 L1326 1402 L1326 1401 L1314 1398 L1312 1396 L1306 1395 L1306 1394 L1304 1394 L1302 1392 L1299 1392 L1299 1391 L1297 1391 L1297 1390 L1295 1390 L1293 1388 L1290 1388 L1290 1387 L1280 1383 L1279 1381 L1269 1377 L1268 1375 L1264 1374 L1260 1370 L1258 1370 L1255 1367 L1253 1367 L1252 1365 L1250 1365 L1248 1362 L1246 1362 L1241 1357 L1239 1357 L1237 1354 L1235 1354 L1232 1350 L1230 1350 L1226 1345 L1224 1345 L1215 1335 L1213 1335 L1204 1326 L1204 1324 L1189 1309 L1189 1307 L1185 1304 L1185 1302 L1181 1299 L1179 1294 L1176 1292 L1176 1290 L1174 1289 L1174 1287 L1172 1286 L1172 1284 L1170 1283 L1170 1281 L1166 1277 L1165 1273 L1163 1272 L1161 1266 L1159 1265 L1159 1263 L1158 1263 L1158 1261 L1157 1261 L1157 1259 L1156 1259 L1156 1257 L1155 1257 L1155 1255 L1154 1255 L1154 1253 L1153 1253 L1153 1251 L1152 1251 L1152 1249 L1151 1249 L1151 1247 L1150 1247 L1150 1245 L1148 1243 L1148 1240 L1147 1240 L1147 1238 L1145 1236 L1145 1233 L1144 1233 L1143 1228 L1141 1226 L1141 1223 L1140 1223 L1140 1220 L1139 1220 L1139 1217 L1138 1217 L1138 1214 L1137 1214 L1137 1211 L1136 1211 L1136 1208 L1135 1208 L1135 1205 L1134 1205 L1134 1201 L1133 1201 L1133 1197 L1132 1197 L1132 1193 L1131 1193 L1131 1189 L1130 1189 L1130 1185 L1129 1185 L1129 1180 L1128 1180 L1126 1161 L1125 1161 L1125 1152 L1124 1152 L1124 1138 L1123 1138 L1124 1097 L1125 1097 L1125 1088 L1126 1088 L1128 1069 L1129 1069 L1129 1064 L1130 1064 L1130 1060 L1131 1060 L1134 1044 L1135 1044 L1135 1041 L1136 1041 L1136 1038 L1137 1038 L1137 1035 L1138 1035 L1141 1023 L1142 1023 L1143 1018 L1145 1016 L1145 1013 L1146 1013 L1146 1011 L1148 1009 L1148 1006 L1149 1006 L1149 1004 L1150 1004 L1150 1002 L1151 1002 L1151 1000 L1152 1000 L1152 998 L1153 998 L1153 996 L1154 996 L1154 994 L1155 994 L1159 984 L1161 983 L1163 977 L1165 976 L1166 972 L1168 971 L1168 969 L1170 968 L1170 966 L1172 965 L1172 963 L1174 962 L1176 957 L1179 955 L1179 953 L1185 947 L1185 945 L1189 942 L1189 940 L1194 936 L1194 934 L1203 926 L1203 924 L1214 913 L1216 913 L1224 904 L1226 904 L1235 895 L1237 895 L1239 892 L1241 892 L1243 889 L1245 889 L1247 886 L1249 886 L1250 884 L1252 884 L1253 882 L1255 882 L1259 878 L1261 878 L1264 875 L1268 874 L1269 872 L1277 869 L1278 867 L1280 867 L1280 866 L1282 866 L1282 865 L1284 865 L1284 864 L1286 864 L1286 863 L1288 863 L1288 862 L1290 862 L1292 860 L1295 860 L1295 859 L1297 859 L1297 858 L1299 858 L1301 856 L1304 856 L1304 855 L1309 854 L1311 852 L1314 852 L1314 851 L1317 851 L1317 850 L1320 850 L1320 849 L1323 849 L1323 848 L1326 848 L1326 847 L1329 847 L1329 846 L1332 846 L1332 845 L1335 845 L1335 844 L1339 844 L1339 843 L1343 843 L1343 842 L1347 842 L1347 841 L1351 841 L1351 840 L1356 840 L1356 839 L1361 839 L1361 838 L1367 838 L1367 837 L1373 837 L1373 836 L1381 836 L1381 835 L1391 835 Z M1301 385 L1331 385 L1331 386 L1340 387 L1340 388 L1346 389 L1346 390 L1348 390 L1348 391 L1358 395 L1359 397 L1364 399 L1368 404 L1370 404 L1373 407 L1373 409 L1378 413 L1378 415 L1380 416 L1380 418 L1382 419 L1383 423 L1386 426 L1386 429 L1387 429 L1389 437 L1390 437 L1391 446 L1392 446 L1392 469 L1391 469 L1391 474 L1390 474 L1390 478 L1389 478 L1388 484 L1387 484 L1387 486 L1386 486 L1382 496 L1377 501 L1377 503 L1365 515 L1363 515 L1361 518 L1357 519 L1356 521 L1354 521 L1354 522 L1352 522 L1352 523 L1350 523 L1348 525 L1345 525 L1345 526 L1342 526 L1342 527 L1339 527 L1339 528 L1335 528 L1335 529 L1299 531 L1299 532 L1293 532 L1293 533 L1288 533 L1288 534 L1280 535 L1280 536 L1277 536 L1277 537 L1265 540 L1265 541 L1263 541 L1263 542 L1261 542 L1259 544 L1256 544 L1256 545 L1250 547 L1249 549 L1245 550 L1244 552 L1240 553 L1235 558 L1230 560 L1205 585 L1205 587 L1202 589 L1202 591 L1199 593 L1198 597 L1194 601 L1194 603 L1193 603 L1193 605 L1192 605 L1192 607 L1191 607 L1191 609 L1190 609 L1190 611 L1189 611 L1189 613 L1188 613 L1188 615 L1187 615 L1187 617 L1185 619 L1185 622 L1183 624 L1183 627 L1182 627 L1182 630 L1181 630 L1181 633 L1180 633 L1179 641 L1178 641 L1178 644 L1177 644 L1177 648 L1176 648 L1176 652 L1175 652 L1175 655 L1174 655 L1172 667 L1171 667 L1171 670 L1170 670 L1168 682 L1167 682 L1167 685 L1166 685 L1166 689 L1165 689 L1165 693 L1164 693 L1164 696 L1163 696 L1161 708 L1160 708 L1160 711 L1159 711 L1157 723 L1156 723 L1156 726 L1155 726 L1153 738 L1152 738 L1152 741 L1151 741 L1150 749 L1149 749 L1149 752 L1148 752 L1146 764 L1145 764 L1145 767 L1144 767 L1142 779 L1141 779 L1141 782 L1140 782 L1139 790 L1138 790 L1138 793 L1137 793 L1135 805 L1134 805 L1134 808 L1133 808 L1131 820 L1130 820 L1128 831 L1127 831 L1127 834 L1292 834 L1292 835 L1289 835 L1289 836 L1287 836 L1287 837 L1285 837 L1283 839 L1280 839 L1280 840 L1278 840 L1278 841 L1268 845 L1267 847 L1259 850 L1258 852 L1254 853 L1253 855 L1249 856 L1248 858 L1246 858 L1245 860 L1243 860 L1242 862 L1240 862 L1239 864 L1237 864 L1236 866 L1231 868 L1229 871 L1227 871 L1221 877 L1219 877 L1209 887 L1207 887 L1197 898 L1195 898 L1188 905 L1188 907 L1177 917 L1177 919 L1171 924 L1171 926 L1167 929 L1167 931 L1163 934 L1161 939 L1158 941 L1158 943 L1155 945 L1155 947 L1153 948 L1153 950 L1151 951 L1151 953 L1147 957 L1146 961 L1144 962 L1143 966 L1141 967 L1141 969 L1140 969 L1140 971 L1139 971 L1139 973 L1138 973 L1138 975 L1136 976 L1135 979 L1088 979 L1087 980 L1086 988 L1085 988 L1083 999 L1082 999 L1082 1002 L1081 1002 L1079 1014 L1078 1014 L1078 1017 L1077 1017 L1075 1029 L1074 1029 L1074 1032 L1073 1032 L1071 1044 L1070 1044 L1068 1055 L1067 1055 L1067 1058 L1066 1058 L1064 1070 L1063 1070 L1063 1073 L1062 1073 L1060 1085 L1059 1085 L1057 1096 L1056 1096 L1056 1099 L1055 1099 L1053 1111 L1052 1111 L1052 1114 L1051 1114 L1049 1126 L1048 1126 L1048 1129 L1047 1129 L1045 1141 L1044 1141 L1042 1152 L1041 1152 L1041 1155 L1040 1155 L1040 1159 L1039 1159 L1038 1167 L1037 1167 L1037 1170 L1036 1170 L1036 1174 L1035 1174 L1034 1182 L1033 1182 L1033 1185 L1032 1185 L1032 1189 L1031 1189 L1030 1197 L1029 1197 L1029 1200 L1028 1200 L1028 1204 L1027 1204 L1027 1207 L1026 1207 L1026 1210 L1025 1210 L1025 1214 L1023 1216 L1020 1228 L1019 1228 L1018 1233 L1016 1235 L1016 1238 L1015 1238 L1015 1240 L1013 1242 L1013 1245 L1012 1245 L1012 1247 L1011 1247 L1011 1249 L1010 1249 L1010 1251 L1009 1251 L1009 1253 L1008 1253 L1004 1263 L1002 1264 L1000 1270 L998 1271 L996 1277 L994 1278 L994 1280 L992 1281 L992 1283 L990 1284 L990 1286 L988 1287 L986 1292 L983 1294 L983 1296 L980 1298 L980 1300 L977 1302 L977 1304 L973 1307 L973 1309 L958 1324 L958 1326 L950 1334 L948 1334 L939 1344 L937 1344 L932 1350 L930 1350 L927 1354 L925 1354 L919 1360 L917 1360 L916 1362 L914 1362 L913 1364 L911 1364 L910 1366 L908 1366 L907 1368 L905 1368 L901 1372 L897 1373 L896 1375 L890 1377 L889 1379 L887 1379 L887 1380 L885 1380 L885 1381 L883 1381 L883 1382 L881 1382 L881 1383 L879 1383 L879 1384 L877 1384 L877 1385 L875 1385 L875 1386 L873 1386 L873 1387 L871 1387 L871 1388 L869 1388 L869 1389 L867 1389 L865 1391 L862 1391 L862 1392 L860 1392 L858 1394 L850 1396 L850 1397 L847 1397 L847 1398 L844 1398 L844 1399 L841 1399 L841 1400 L838 1400 L838 1401 L835 1401 L835 1402 L832 1402 L832 1403 L829 1403 L829 1404 L825 1404 L825 1405 L822 1405 L822 1406 L818 1406 L818 1407 L814 1407 L814 1408 L809 1408 L809 1409 L804 1409 L804 1410 L799 1410 L799 1411 L786 1412 L786 1413 L766 1414 L766 1415 L737 1415 L737 1414 L732 1414 L732 1413 L724 1412 L722 1410 L719 1410 L719 1409 L711 1406 L710 1404 L708 1404 L704 1400 L702 1400 L691 1389 L691 1387 L688 1385 L688 1383 L684 1379 L684 1377 L683 1377 L683 1375 L681 1373 L681 1370 L679 1368 L678 1362 L677 1362 L676 1351 L675 1351 L676 1328 L677 1328 L679 1317 L680 1317 L680 1315 L682 1313 L683 1308 L685 1307 L686 1303 L688 1302 L688 1300 L691 1298 L691 1296 L701 1286 L703 1286 L708 1281 L712 1280 L713 1278 L715 1278 L717 1276 L720 1276 L722 1274 L728 1273 L728 1272 L733 1272 L733 1271 L738 1271 L738 1270 L758 1270 L758 1269 L774 1268 L774 1267 L779 1267 L779 1266 L791 1264 L791 1263 L797 1262 L799 1260 L802 1260 L804 1258 L807 1258 L807 1257 L809 1257 L809 1256 L819 1252 L820 1250 L824 1249 L825 1247 L829 1246 L834 1241 L836 1241 L864 1213 L864 1211 L866 1210 L866 1208 L869 1206 L870 1202 L872 1201 L873 1197 L875 1196 L875 1194 L876 1194 L876 1192 L877 1192 L877 1190 L878 1190 L878 1188 L879 1188 L879 1186 L881 1184 L883 1176 L885 1174 L886 1168 L887 1168 L887 1164 L888 1164 L888 1161 L889 1161 L890 1153 L891 1153 L893 1142 L894 1142 L894 1139 L895 1139 L897 1127 L898 1127 L898 1124 L899 1124 L901 1112 L902 1112 L902 1109 L903 1109 L905 1097 L906 1097 L908 1086 L909 1086 L909 1083 L910 1083 L912 1071 L913 1071 L913 1068 L914 1068 L916 1056 L917 1056 L917 1053 L918 1053 L920 1041 L921 1041 L921 1038 L922 1038 L923 1030 L924 1030 L924 1027 L925 1027 L925 1023 L926 1023 L926 1019 L927 1019 L927 1015 L928 1015 L928 1012 L929 1012 L929 1008 L930 1008 L930 1004 L931 1004 L931 1000 L932 1000 L932 997 L933 997 L933 993 L934 993 L934 989 L935 989 L935 985 L936 985 L937 979 L764 979 L764 978 L758 978 L758 977 L754 977 L754 976 L745 974 L745 973 L735 969 L730 964 L728 964 L715 951 L715 949 L713 948 L713 946 L711 945 L710 941 L707 938 L707 935 L705 933 L705 930 L704 930 L704 927 L703 927 L703 923 L702 923 L701 908 L700 908 L700 905 L701 905 L701 894 L702 894 L702 889 L703 889 L706 877 L707 877 L710 869 L714 865 L714 863 L730 847 L732 847 L733 845 L737 844 L738 842 L740 842 L742 840 L745 840 L745 839 L753 837 L753 836 L762 835 L762 834 L976 834 L977 833 L977 829 L978 829 L978 825 L979 825 L979 821 L980 821 L980 818 L981 818 L983 806 L984 806 L984 803 L985 803 L987 791 L988 791 L988 788 L989 788 L990 780 L991 780 L991 777 L992 777 L994 765 L995 765 L995 762 L996 762 L998 750 L999 750 L999 747 L1000 747 L1002 735 L1003 735 L1003 732 L1004 732 L1005 724 L1006 724 L1006 721 L1007 721 L1009 709 L1010 709 L1010 706 L1011 706 L1013 694 L1014 694 L1014 691 L1015 691 L1017 679 L1018 679 L1020 668 L1021 668 L1021 665 L1022 665 L1024 653 L1025 653 L1025 650 L1026 650 L1028 638 L1029 638 L1029 635 L1030 635 L1032 623 L1033 623 L1033 620 L1034 620 L1034 616 L1035 616 L1035 612 L1036 612 L1036 609 L1037 609 L1038 601 L1039 601 L1040 594 L1041 594 L1041 591 L1042 591 L1042 587 L1043 587 L1045 578 L1047 576 L1048 570 L1050 568 L1050 565 L1051 565 L1051 563 L1053 561 L1053 558 L1054 558 L1054 556 L1055 556 L1055 554 L1056 554 L1056 552 L1057 552 L1057 550 L1058 550 L1058 548 L1059 548 L1059 546 L1060 546 L1060 544 L1061 544 L1061 542 L1062 542 L1066 532 L1068 531 L1069 527 L1071 526 L1072 522 L1074 521 L1074 519 L1076 518 L1076 516 L1078 515 L1078 513 L1080 512 L1082 507 L1085 505 L1085 503 L1088 501 L1088 499 L1091 497 L1091 495 L1095 492 L1095 490 L1101 485 L1101 483 L1126 458 L1128 458 L1133 452 L1135 452 L1138 448 L1140 448 L1143 444 L1145 444 L1147 441 L1152 439 L1154 436 L1156 436 L1160 432 L1164 431 L1168 427 L1172 426 L1173 424 L1179 422 L1180 420 L1182 420 L1182 419 L1184 419 L1184 418 L1186 418 L1186 417 L1188 417 L1188 416 L1190 416 L1190 415 L1192 415 L1192 414 L1194 414 L1194 413 L1196 413 L1196 412 L1198 412 L1200 410 L1203 410 L1203 409 L1205 409 L1207 407 L1210 407 L1212 405 L1215 405 L1217 403 L1220 403 L1220 402 L1223 402 L1223 401 L1226 401 L1226 400 L1229 400 L1229 399 L1232 399 L1232 398 L1235 398 L1235 397 L1239 397 L1239 396 L1242 396 L1242 395 L1246 395 L1246 394 L1250 394 L1250 393 L1254 393 L1254 392 L1258 392 L1258 391 L1268 390 L1268 389 L1281 388 L1281 387 L1289 387 L1289 386 L1301 386 Z M1403 979 L1403 980 L1387 981 L1387 982 L1382 982 L1382 983 L1374 984 L1374 985 L1371 985 L1371 986 L1367 986 L1367 987 L1364 987 L1362 989 L1359 989 L1357 991 L1354 991 L1354 992 L1344 996 L1343 998 L1337 1000 L1336 1002 L1334 1002 L1333 1004 L1328 1006 L1321 1013 L1319 1013 L1302 1030 L1302 1032 L1298 1035 L1298 1037 L1296 1038 L1296 1040 L1293 1042 L1293 1044 L1291 1045 L1290 1049 L1288 1050 L1288 1052 L1287 1052 L1287 1054 L1286 1054 L1286 1056 L1285 1056 L1285 1058 L1284 1058 L1284 1060 L1283 1060 L1283 1062 L1282 1062 L1282 1064 L1280 1066 L1280 1069 L1278 1071 L1278 1074 L1277 1074 L1277 1077 L1276 1077 L1276 1080 L1275 1080 L1275 1083 L1274 1083 L1274 1087 L1273 1087 L1273 1091 L1272 1091 L1272 1095 L1271 1095 L1271 1101 L1270 1101 L1270 1108 L1269 1108 L1269 1141 L1270 1141 L1270 1148 L1271 1148 L1271 1154 L1272 1154 L1274 1166 L1275 1166 L1278 1178 L1280 1180 L1280 1183 L1281 1183 L1281 1185 L1282 1185 L1282 1187 L1283 1187 L1283 1189 L1284 1189 L1288 1199 L1290 1200 L1290 1202 L1292 1203 L1292 1205 L1296 1209 L1296 1211 L1299 1213 L1299 1215 L1303 1218 L1303 1220 L1318 1235 L1320 1235 L1324 1240 L1326 1240 L1328 1243 L1330 1243 L1331 1245 L1333 1245 L1337 1249 L1343 1251 L1344 1253 L1346 1253 L1346 1254 L1348 1254 L1348 1255 L1350 1255 L1352 1257 L1355 1257 L1355 1258 L1357 1258 L1359 1260 L1362 1260 L1362 1261 L1365 1261 L1365 1262 L1368 1262 L1368 1263 L1371 1263 L1371 1264 L1374 1264 L1374 1265 L1378 1265 L1378 1266 L1382 1266 L1382 1267 L1387 1267 L1387 1268 L1394 1268 L1394 1269 L1424 1270 L1424 1269 L1434 1269 L1434 1268 L1446 1267 L1446 1266 L1454 1265 L1454 1264 L1457 1264 L1457 1263 L1469 1260 L1469 1259 L1471 1259 L1473 1257 L1476 1257 L1476 1256 L1486 1252 L1487 1250 L1491 1249 L1492 1247 L1494 1247 L1495 1245 L1500 1243 L1502 1240 L1504 1240 L1507 1236 L1509 1236 L1526 1219 L1526 1217 L1530 1214 L1530 1212 L1532 1211 L1532 1209 L1535 1207 L1535 1205 L1537 1204 L1538 1200 L1540 1199 L1540 1197 L1541 1197 L1541 1195 L1542 1195 L1542 1193 L1543 1193 L1543 1191 L1544 1191 L1544 1189 L1545 1189 L1545 1187 L1546 1187 L1546 1185 L1547 1185 L1547 1183 L1549 1181 L1549 1178 L1550 1178 L1550 1175 L1551 1175 L1551 1172 L1552 1172 L1552 1169 L1553 1169 L1553 1166 L1554 1166 L1554 1163 L1555 1163 L1555 1158 L1556 1158 L1557 1148 L1558 1148 L1558 1141 L1559 1141 L1559 1108 L1558 1108 L1558 1101 L1557 1101 L1557 1095 L1556 1095 L1555 1086 L1554 1086 L1554 1083 L1553 1083 L1553 1080 L1552 1080 L1549 1068 L1548 1068 L1548 1066 L1547 1066 L1547 1064 L1546 1064 L1546 1062 L1545 1062 L1545 1060 L1544 1060 L1540 1050 L1538 1049 L1537 1045 L1532 1040 L1530 1035 L1526 1032 L1526 1030 L1509 1013 L1507 1013 L1504 1009 L1502 1009 L1500 1006 L1498 1006 L1497 1004 L1495 1004 L1491 1000 L1487 999 L1486 997 L1484 997 L1484 996 L1482 996 L1482 995 L1480 995 L1480 994 L1478 994 L1478 993 L1476 993 L1474 991 L1466 989 L1464 987 L1458 986 L1458 985 L1454 985 L1454 984 L1450 984 L1450 983 L1446 983 L1446 982 L1441 982 L1441 981 L1435 981 L1435 980 Z M2045 1043 L2195 1043 L2195 1047 L2194 1047 L2192 1058 L2191 1058 L2191 1061 L2190 1061 L2188 1073 L2187 1073 L2187 1076 L2186 1076 L2184 1088 L2183 1088 L2183 1091 L2182 1091 L2180 1103 L2179 1103 L2177 1114 L2176 1114 L2176 1117 L2175 1117 L2173 1129 L2172 1129 L2172 1132 L2171 1132 L2169 1144 L2168 1144 L2166 1155 L2165 1155 L2165 1158 L2164 1158 L2162 1170 L2161 1170 L2161 1173 L2160 1173 L2158 1185 L2157 1185 L2157 1188 L2156 1188 L2154 1200 L2153 1200 L2151 1211 L2150 1211 L2150 1214 L2149 1214 L2147 1226 L2146 1226 L2146 1229 L2145 1229 L2143 1241 L2142 1241 L2142 1244 L2141 1244 L2139 1256 L2138 1256 L2138 1259 L2137 1259 L2136 1267 L2135 1267 L2135 1270 L2134 1270 L2132 1282 L2131 1282 L2131 1285 L2130 1285 L2128 1297 L2127 1297 L2127 1300 L2126 1300 L2124 1312 L2123 1312 L2123 1315 L2122 1315 L2121 1323 L2120 1323 L2120 1326 L2119 1326 L2117 1338 L2116 1338 L2116 1341 L2115 1341 L2115 1345 L2114 1345 L2114 1349 L2113 1349 L2113 1353 L2112 1353 L2112 1356 L2111 1356 L2111 1360 L2110 1360 L2108 1369 L2107 1369 L2106 1374 L2105 1374 L2104 1378 L2102 1379 L2101 1383 L2098 1385 L2098 1387 L2094 1390 L2094 1392 L2089 1397 L2087 1397 L2084 1401 L2082 1401 L2078 1405 L2076 1405 L2076 1406 L2074 1406 L2074 1407 L2072 1407 L2072 1408 L2070 1408 L2070 1409 L2068 1409 L2066 1411 L2060 1412 L2060 1413 L2050 1414 L2050 1415 L2029 1415 L2029 1414 L2024 1414 L2024 1413 L2020 1413 L2020 1412 L2011 1410 L2011 1409 L2003 1406 L1999 1402 L1997 1402 L1995 1399 L1993 1399 L1983 1389 L1983 1387 L1978 1382 L1978 1380 L1977 1380 L1977 1378 L1976 1378 L1976 1376 L1975 1376 L1975 1374 L1974 1374 L1974 1372 L1972 1370 L1972 1367 L1971 1367 L1971 1364 L1970 1364 L1970 1361 L1969 1361 L1969 1357 L1968 1357 L1968 1350 L1967 1350 L1968 1329 L1969 1329 L1969 1325 L1970 1325 L1973 1309 L1974 1309 L1974 1306 L1975 1306 L1977 1294 L1978 1294 L1980 1283 L1981 1283 L1981 1280 L1982 1280 L1984 1268 L1985 1268 L1985 1265 L1986 1265 L1988 1253 L1989 1253 L1989 1250 L1990 1250 L1992 1238 L1993 1238 L1995 1227 L1996 1227 L1996 1224 L1997 1224 L1999 1212 L2000 1212 L2000 1209 L2001 1209 L2003 1197 L2004 1197 L2004 1194 L2005 1194 L2007 1182 L2008 1182 L2008 1179 L2009 1179 L2010 1171 L2011 1171 L2011 1168 L2012 1168 L2014 1156 L2015 1156 L2015 1153 L2016 1153 L2018 1141 L2019 1141 L2019 1138 L2020 1138 L2022 1126 L2023 1126 L2023 1123 L2024 1123 L2025 1115 L2026 1115 L2026 1112 L2027 1112 L2029 1100 L2030 1100 L2030 1097 L2031 1097 L2033 1085 L2034 1085 L2034 1082 L2035 1082 L2036 1074 L2037 1074 L2037 1071 L2038 1071 L2038 1067 L2039 1067 L2039 1063 L2040 1063 L2040 1059 L2041 1059 L2041 1056 L2042 1056 L2042 1052 L2043 1052 L2043 1048 L2044 1048 L2044 1044 Z M1537 834 L1956 834 L1954 836 L1951 836 L1951 837 L1949 837 L1949 838 L1947 838 L1945 840 L1942 840 L1942 841 L1938 842 L1937 844 L1932 845 L1931 847 L1923 850 L1922 852 L1920 852 L1920 853 L1916 854 L1915 856 L1913 856 L1912 858 L1908 859 L1907 861 L1905 861 L1904 863 L1899 865 L1897 868 L1895 868 L1893 871 L1888 873 L1881 880 L1879 880 L1866 893 L1864 893 L1846 911 L1846 913 L1839 919 L1839 921 L1833 926 L1833 928 L1830 930 L1830 932 L1827 934 L1827 936 L1824 938 L1824 940 L1821 942 L1821 944 L1819 945 L1819 947 L1817 948 L1817 950 L1815 951 L1815 953 L1813 954 L1813 956 L1809 960 L1808 964 L1806 965 L1806 967 L1805 967 L1804 971 L1802 972 L1802 974 L1801 974 L1799 979 L1693 979 L1691 974 L1689 973 L1687 967 L1685 966 L1684 962 L1682 961 L1681 957 L1679 956 L1679 954 L1677 953 L1677 951 L1675 950 L1673 945 L1670 943 L1668 938 L1661 931 L1661 929 L1657 926 L1657 924 L1652 920 L1652 918 L1641 908 L1641 906 L1632 897 L1630 897 L1621 887 L1619 887 L1609 877 L1607 877 L1605 874 L1603 874 L1601 871 L1599 871 L1597 868 L1595 868 L1594 866 L1589 864 L1584 859 L1580 858 L1579 856 L1575 855 L1574 853 L1570 852 L1569 850 L1561 847 L1560 845 L1558 845 L1558 844 L1556 844 L1556 843 L1554 843 L1554 842 L1552 842 L1552 841 L1550 841 L1548 839 L1545 839 L1545 838 L1543 838 L1543 837 L1541 837 L1541 836 L1539 836 Z M2199 638 L2219 638 L2219 639 L2225 639 L2225 640 L2229 640 L2229 641 L2238 643 L2238 644 L2246 647 L2250 651 L2252 651 L2254 654 L2256 654 L2266 664 L2266 666 L2271 671 L2271 673 L2274 676 L2275 681 L2276 681 L2276 683 L2278 685 L2280 696 L2281 696 L2281 702 L2282 702 L2281 725 L2280 725 L2278 736 L2277 736 L2277 738 L2275 740 L2275 743 L2272 746 L2271 750 L2266 755 L2266 757 L2256 767 L2254 767 L2252 770 L2250 770 L2249 772 L2247 772 L2246 774 L2244 774 L2244 775 L2242 775 L2242 776 L2240 776 L2238 778 L2235 778 L2235 779 L2232 779 L2232 780 L2229 780 L2229 781 L2225 781 L2225 782 L2219 782 L2219 783 L2199 783 L2199 782 L2194 782 L2194 781 L2190 781 L2190 780 L2186 780 L2184 778 L2181 778 L2181 777 L2171 773 L2167 769 L2165 769 L2160 763 L2158 763 L2156 761 L2156 759 L2151 755 L2151 753 L2147 749 L2146 745 L2144 744 L2143 739 L2142 739 L2141 734 L2140 734 L2140 731 L2139 731 L2138 722 L2137 722 L2137 699 L2138 699 L2138 694 L2139 694 L2139 690 L2140 690 L2141 684 L2143 682 L2143 679 L2146 676 L2146 674 L2149 671 L2149 669 L2151 668 L2151 666 L2156 662 L2156 660 L2158 658 L2160 658 L2165 652 L2167 652 L2171 648 L2173 648 L2173 647 L2175 647 L2175 646 L2177 646 L2177 645 L2179 645 L2179 644 L2181 644 L2183 642 L2194 640 L2194 639 L2199 639 Z"/>
</svg>
