<svg xmlns="http://www.w3.org/2000/svg" width="213" height="118" fill="none" viewBox="0 0 213 118"><path fill="#000" d="m34.045 60.705-.047.313h-1.82l.023-.305.598-.148v-3.82l-.602-.18.047-.301 1.137-.145.082.074-.055.504h.027q.188-.261.462-.453a1.05 1.05 0 0 1 .617-.191q.347 0 .613.18.265.18.418.558.153.374.152.95 0 .545-.226.98a1.66 1.66 0 0 1-1.512.918q-.172 0-.367-.036l-.024-.472q.133.05.25.07.118.016.348.016a.67.67 0 0 0 .606-.336q.21-.336.21-.903 0-.699-.187-1.054-.187-.36-.559-.36a.9.9 0 0 0-.437.118 1.6 1.6 0 0 0-.364.28v3.606zm4.215-1.48-.04.34h-2.155l.038-.29.598-.156v-2.398l-.636-.192.054-.297 1.121-.144.09.094-.078.898h.074q.102-.34.262-.578t.34-.355a.64.64 0 0 1 .355-.122q.192 0 .313.133a.43.43 0 0 1 .12.305q0 .246-.222.434a1.04 1.04 0 0 0-.476-.153.46.46 0 0 0-.258.098.9.9 0 0 0-.258.285 1.3 1.3 0 0 0-.152.469v1.496zm3.16.215q-.375.23-.828.23-.504 0-.867-.23a1.5 1.5 0 0 1-.551-.63 2.1 2.1 0 0 1-.188-.91q0-.57.239-.992.237-.426.625-.648.39-.223.835-.223.475 0 .82.227.353.226.536.636.188.407.188.942 0 .53-.22.949-.214.418-.59.649m-.324-2.735a.73.73 0 0 0-.574-.258.7.7 0 0 0-.473.16.94.94 0 0 0-.277.43 1.8 1.8 0 0 0-.09.586q0 .434.105.813t.34.617a.8.8 0 0 0 .598.238.65.65 0 0 0 .445-.16 1 1 0 0 0 .273-.422q.09-.258.09-.547 0-.422-.105-.812a1.5 1.5 0 0 0-.332-.645m3.699 4.18a2.1 2.1 0 0 1-.855.187q-.614 0-1.016-.207-.399-.203-.399-.668 0-.348.625-.703v-.035a.7.7 0 0 1-.277-.227.53.53 0 0 1-.098-.308q0-.101.098-.227.101-.128.254-.242.156-.113.3-.172v-.027a.7.7 0 0 1-.261-.168 1.4 1.4 0 0 1-.266-.363 1.02 1.02 0 0 1 .078-1.051q.187-.277.489-.442.305-.168.629-.167.48 0 .82.245.156-.008.438-.027.28-.023.402-.035l.078.09-.152.434h-.063l-.48-.157v.067q.045.105.09.258.042.151.043.285a.97.97 0 0 1-.204.605 1.36 1.36 0 0 1-.508.414 1.4 1.4 0 0 1-.96.106q-.196.203-.196.343 0 .138.145.211.148.07.57.07h.531q.477 0 .778.188.304.187.304.598 0 .332-.261.633a1.9 1.9 0 0 1-.676.492m-.457-4.39a.45.45 0 0 0-.336-.145.5.5 0 0 0-.442.222q-.144.223-.144.617 0 .258.098.461.097.203.246.317a.5.5 0 0 0 .3.113.5.5 0 0 0 .422-.191q.153-.192.153-.59 0-.223-.078-.442a.9.9 0 0 0-.22-.363m-.242 3.058h-.68q0-.012-.059.035a.5.5 0 0 0-.101.14.7.7 0 0 0-.043.258q0 .668.937.668.419 0 .668-.168.255-.168.254-.53 0-.173-.097-.259a.56.56 0 0 0-.297-.117 5 5 0 0 0-.582-.027m4.164-.328-.04.34h-2.155l.038-.29.598-.156V56.72l-.636-.192.054-.297 1.121-.144.09.094-.078.898h.074q.102-.34.262-.578t.34-.355a.64.64 0 0 1 .355-.122q.192 0 .313.133a.43.43 0 0 1 .12.305q0 .246-.222.434a1.04 1.04 0 0 0-.476-.153.46.46 0 0 0-.258.098.9.9 0 0 0-.258.285 1.3 1.3 0 0 0-.152.469v1.496zm2.16.242q-.265.19-.688.191a.8.8 0 0 1-.382-.09.7.7 0 0 1-.282-.258.8.8 0 0 1-.101-.402q0-.301.191-.566.192-.266.594-.445.406-.184 1.016-.227v-.215q0-.453-.16-.746-.16-.297-.532-.297-.183 0-.266.074a.4.4 0 0 0-.109.223q-.024.148-.058.543a.9.9 0 0 1-.387-.074q-.156-.075-.156-.328 0-.204.215-.387.215-.187.53-.3.318-.114.59-.114.516 0 .739.289.225.285.226.91v1.418q0 .187.035.29a.3.3 0 0 0 .125.151 1 1 0 0 0 .278.083l.195.035-.05.335a4 4 0 0 0-.18.032 1.6 1.6 0 0 1-.352.043.7.7 0 0 1-.348-.078.5.5 0 0 1-.199-.196.6.6 0 0 1-.058-.25v-.058h-.043a1.2 1.2 0 0 1-.383.414m.348-.637v-.937q-.61.12-.864.328a.62.62 0 0 0-.254.504q0 .1.051.207.051.105.149.175.101.07.238.07.188 0 .375-.109a1.3 1.3 0 0 0 .305-.238m3.27.426-.044.309h-1.8l.038-.29.586-.156v-2.363l-.625-.2.04-.292 1.187-.164.07.082-.07.492h.035q.207-.258.516-.434a1.3 1.3 0 0 1 .656-.175q.297 0 .535.156.242.156.328.488h.047q.207-.266.504-.437.3-.177.649-.176.921 0 .921 1.09v1.93l.54.14-.051.309h-1.66l.027-.286.488-.156v-1.844a.7.7 0 0 0-.176-.488.61.61 0 0 0-.48-.195.76.76 0 0 0-.406.105 1.6 1.6 0 0 0-.34.285v2.133l.578.137-.04.309h-1.73l.043-.29.512-.156v-1.84a.7.7 0 0 0-.09-.355.6.6 0 0 0-.238-.242.7.7 0 0 0-.34-.086q-.218 0-.422.09a.95.95 0 0 0-.348.25v2.183zm6.187 0-.043.309h-1.8l.039-.29.586-.156v-2.363l-.625-.2.039-.292 1.187-.164.07.082-.07.492h.036q.207-.258.515-.434a1.3 1.3 0 0 1 .657-.175q.296 0 .535.156.241.156.328.488h.047q.207-.266.503-.437.301-.177.649-.176.921 0 .922 1.09v1.93l.539.14-.05.309h-1.661l.027-.286.489-.156v-1.844a.7.7 0 0 0-.176-.488.61.61 0 0 0-.48-.195.76.76 0 0 0-.407.105 1.6 1.6 0 0 0-.34.285v2.133l.578.137-.039.309h-1.73l.043-.29.511-.156v-1.84a.7.7 0 0 0-.09-.355.6.6 0 0 0-.238-.242.7.7 0 0 0-.34-.086q-.218 0-.421.09a.95.95 0 0 0-.348.25v2.183zm5.484-3.934a.47.47 0 0 1-.469-.004.5.5 0 0 1-.23-.418q0-.183.136-.308a.47.47 0 0 1 .329-.13.48.48 0 0 1 .336.13q.14.129.14.316a.45.45 0 0 1-.066.239.5.5 0 0 1-.176.175m.71 4.243h-1.874l.047-.31.59-.144v-2.4l-.59-.215.05-.297 1.098-.09.098.098v2.906l.625.141zm2.103-.31-.055.31h-1.813l.04-.286.59-.16v-2.371l-.602-.203.039-.297 1.164-.152.066.074-.066.5h.039a2 2 0 0 1 .527-.442q.305-.175.649-.175.456 0 .699.289.242.29.242.816v1.961l.563.137-.04.309h-1.753l.039-.286.539-.16V57.31q0-.363-.188-.538a.67.67 0 0 0-.492-.18q-.22 0-.422.09a1 1 0 0 0-.348.246v2.191zm4.492 1.63a2.1 2.1 0 0 1-.856.187q-.613 0-1.015-.207-.399-.203-.399-.668 0-.348.625-.703v-.035a.7.7 0 0 1-.277-.227.53.53 0 0 1-.098-.308q0-.101.098-.227.1-.128.254-.242.156-.113.3-.172v-.027a.7.7 0 0 1-.261-.168 1.4 1.4 0 0 1-.266-.363 1.02 1.02 0 0 1 .078-1.051q.188-.277.489-.442.304-.168.628-.167.48 0 .82.245.157-.008.438-.027.282-.023.403-.035l.078.09-.153.434h-.062l-.48-.157v.067q.045.105.09.258.042.151.042.285a.97.97 0 0 1-.203.605 1.36 1.36 0 0 1-.508.414 1.4 1.4 0 0 1-.96.106q-.195.203-.196.343 0 .138.145.211.148.07.57.07h.531q.477 0 .778.188.304.187.304.598 0 .332-.261.633a1.9 1.9 0 0 1-.676.492m-.457-4.39a.45.45 0 0 0-.336-.145.5.5 0 0 0-.442.222q-.144.223-.144.617 0 .258.097.461.099.203.246.317a.5.5 0 0 0 .301.113.5.5 0 0 0 .422-.191q.153-.192.153-.59 0-.223-.079-.442a.9.9 0 0 0-.218-.363m-.243 3.058h-.68q0-.012-.058.035a.5.5 0 0 0-.101.14.7.7 0 0 0-.043.258q0 .668.937.668.418 0 .668-.168.255-.168.254-.53 0-.173-.098-.259a.56.56 0 0 0-.296-.117 5 5 0 0 0-.583-.027m5.45-.012q-.34.14-.703.14-.458 0-.809-.234a1.6 1.6 0 0 1-.543-.637 2 2 0 0 1-.191-.867q0-.558.234-.988.234-.434.613-.668.382-.238.813-.238.313 0 .523.082.21.081.313.219.105.136.105.297a.36.36 0 0 1-.129.285.6.6 0 0 1-.367.125 2 2 0 0 0-.262-.457.44.44 0 0 0-.367-.184.62.62 0 0 0-.406.145.95.95 0 0 0-.27.41 1.8 1.8 0 0 0-.093.613q0 .356.129.734.128.38.39.637a.88.88 0 0 0 .64.258q.263 0 .438-.063.176-.062.352-.175l.097.226q-.163.196-.507.34m2.504.024H78.4l.043-.31.598-.144v-4.027l-.617-.211.047-.297 1.125-.086.097.094v4.527l.621.141zm.699-1.043v-1.8l-.54-.215.055-.309 1.047-.082.098.094v2.117q0 .793.602.793a1 1 0 0 0 .414-.078 1 1 0 0 0 .312-.223v-2.074l-.621-.164.039-.36 1.148-.105.082.094v2.516q0 .187.047.285a.3.3 0 0 0 .133.133q.083.038.242.074l.18.039-.035.324a3 3 0 0 1-.3.059q-.118.015-.29.015-.28 0-.43-.156a.58.58 0 0 1-.144-.41v-.035h-.05q-.416.6-1.118.601-.405 0-.64-.265-.231-.27-.231-.867m3.832.851v-4.254l-.59-.207.05-.297 1.083-.082.094.09v1.625l-.055.41h.043q.255-.285.527-.445a1.14 1.14 0 0 1 .586-.16q.375 0 .66.21.285.212.442.59.16.38.16.868 0 .597-.266 1.035a1.75 1.75 0 0 1-.703.668q-.441.23-.957.23-.28 0-.566-.07a1.7 1.7 0 0 1-.508-.211m1.472-2.808q-.48 0-.835.375v2.019a.86.86 0 0 0 .343.191q.227.075.48.075a.7.7 0 0 0 .423-.137.9.9 0 0 0 .304-.418q.114-.281.114-.7 0-.334-.075-.652a1.24 1.24 0 0 0-.257-.535.61.61 0 0 0-.496-.218m14.283 54.886q-2.793.387-4.727-1.243t-2.296-4.237a18 18 0 0 1-.172-3.297q.153-1.635.52-3.774l2.32-14.746 7.263-1.007-2.605 16.114q2.126.275 3.395 1.902 1.363 1.614 1.608 3.383.35 2.514-1.268 4.542-1.524 2.014-4.038 2.363m18.995-2.634q-2.794.387-4.728-1.243-1.934-1.629-2.296-4.237a18 18 0 0 1-.172-3.297q.153-1.635.521-3.773l2.32-14.747 7.263-1.007-2.606 16.115q2.126.275 3.396 1.901 1.362 1.614 1.608 3.384.348 2.513-1.269 4.541-1.523 2.014-4.037 2.363"/><path fill="#0F0E0E" fill-rule="evenodd" d="M173.295 14.966c-19.538-3.29-45.747-3.395-73.604.503l-.139-.99c27.933-3.91 54.248-3.81 73.909-.499 9.827 1.655 18.021 4.117 23.927 7.301 5.893 3.177 9.61 7.131 10.264 11.81.654 4.67-1.706 9.448-6.327 14.062-4.628 4.621-11.595 9.153-20.354 13.357-17.523 8.41-42.325 15.558-70.257 19.466-27.931 3.909-53.743 3.843-72.901.566-9.577-1.639-17.52-4.084-23.239-7.257-5.71-3.169-9.29-7.115-9.944-11.786-.564-4.032 1.088-8.117 4.485-12.086 3.398-3.97 8.58-7.875 15.197-11.579 13.239-7.41 32.327-14.072 54.705-18.845l.209.979c-22.32 4.76-41.304 11.395-54.426 18.739-6.562 3.673-11.633 7.51-14.925 11.356-3.291 3.846-4.764 7.652-4.254 11.297.59 4.218 3.847 7.948 9.439 11.05 5.582 3.098 13.402 5.518 22.921 7.146 19.032 3.256 44.737 3.328 72.595-.57s52.555-11.023 69.963-19.378c8.706-4.178 15.562-8.652 20.08-13.163 4.525-4.518 6.633-8.998 6.043-13.216-.589-4.21-3.963-7.949-9.748-11.068-5.773-3.112-13.847-5.55-23.619-7.195" clip-rule="evenodd"/><path fill="#1E4CF4" d="M32.657 38.873V20.521q0-2.109 1-3.81a7.76 7.76 0 0 1 2.737-2.702 7.3 7.3 0 0 1 3.811-1.036h9.361v4.662h-8.769q-1.184 0-2.035.851a2.84 2.84 0 0 0-.814 2.035v4.181h10.36v4.662h-10.36v9.51zm32.886.481q-3.108 0-5.624-1.036-2.48-1.073-4.255-2.923a13 13 0 0 1-2.738-4.292q-.962-2.442-.962-5.217t.962-5.18a13 13 0 0 1 2.738-4.292q1.776-1.85 4.255-2.886 2.516-1.036 5.624-1.036t5.587 1.036q2.516 1.037 4.292 2.886a13 13 0 0 1 2.738 4.292q.962 2.406.962 5.18 0 2.776-.962 5.217a13 13 0 0 1-2.738 4.292q-1.776 1.85-4.292 2.923-2.48 1.036-5.587 1.036m0-4.699q1.776 0 3.293-.629a7.9 7.9 0 0 0 2.627-1.85 8.3 8.3 0 0 0 1.739-2.812q.63-1.59.629-3.478 0-1.887-.629-3.478a7.9 7.9 0 0 0-1.739-2.775 7.5 7.5 0 0 0-2.627-1.813q-1.517-.666-3.293-.666t-3.293.666a7.9 7.9 0 0 0-2.664 1.813 8.7 8.7 0 0 0-1.739 2.775q-.592 1.591-.592 3.478t.592 3.478a9.1 9.1 0 0 0 1.739 2.812 8.3 8.3 0 0 0 2.664 1.85q1.517.63 3.293.63m43.625 4.698v-4.662h4.662V18.116h-4.662v-4.662h14.615v4.662h-4.662v16.576h4.662v4.662zm18.685 0V21.002q0-2.109.999-3.81a7.8 7.8 0 0 1 2.738-2.702 7.3 7.3 0 0 1 3.811-1.036h9.361v4.662h-8.769q-1.183 0-2.035.851a2.84 2.84 0 0 0-.814 2.035v4.181h10.36v4.662h-10.36v9.51z"/><path fill="#000" fill-rule="evenodd" d="M83.263 40.354V26.626h11.452q1.153-.002 2.077-.431a3.44 3.44 0 0 0 1.42-1.292l.007-.011c.359-.55.547-1.176.547-2.02 0-.846-.188-1.471-.547-2.021a3.43 3.43 0 0 0-1.457-1.263l-.01-.005-.01-.005c-.587-.304-1.259-.462-2.027-.462H82.99l-3.757.845-.22-.975 3.866-.87h11.837c.905 0 1.735.186 2.477.57a4.43 4.43 0 0 1 1.864 1.618c.479.733.71 1.555.71 2.567 0 1.01-.23 1.83-.707 2.562a4.44 4.44 0 0 1-1.826 1.66l-.007.003-.006.003q-1.146.529-2.505.527H84.263v11.728h4.291v-8.066h6.53l3.062 5.506a5.34 5.34 0 0 0 1.824 1.856 4.93 4.93 0 0 0 2.589.704h2.83v-3.662h-2.016c-.26 0-.512-.049-.741-.163l-.028-.014-.026-.018a1.8 1.8 0 0 1-.509-.508l-.009-.015-2.625-4.592.433-.248a8.5 8.5 0 0 0 3.042-2.937c.761-1.245 1.147-2.681 1.147-4.326 0-1.694-.399-3.153-1.181-4.395l-.004-.006a7.9 7.9 0 0 0-3.136-2.926l-.01-.005c-1.3-.72-2.758-1.085-4.382-1.085H83.122v-1h12.222c1.778 0 3.403.4 4.863 1.207a8.9 8.9 0 0 1 3.517 3.285c.894 1.42 1.333 3.069 1.333 4.925 0 1.809-.427 3.43-1.294 4.85l-.002.003a9.5 9.5 0 0 1-2.968 3.018l2.117 3.705a.8.8 0 0 0 .195.2c.064.026.15.045.268.045h3.016v5.662h-3.83a5.93 5.93 0 0 1-3.106-.848l-.006-.003a6.34 6.34 0 0 1-2.166-2.207l-.006-.01-2.78-4.998h-4.94v8.066zm-51.606-.48V20.52c0-1.57.375-3.018 1.137-4.317l.004-.007.004-.006a8.76 8.76 0 0 1 3.083-3.042 8.3 8.3 0 0 1 4.32-1.176h10.361v6.662h-9.769a1.78 1.78 0 0 0-1.32.55 1.84 1.84 0 0 0-.529 1.336v3.181h10.36v6.662h-10.36v9.51zm6.291-10.51h10.36v-4.662h-10.36v-4.18q0-1.184.814-2.036.852-.85 2.035-.85h8.77v-4.663h-9.362a7.3 7.3 0 0 0-3.81 1.036 7.76 7.76 0 0 0-2.739 2.701q-.999 1.702-.999 3.811v18.352h5.291zM59.53 39.24l-.008-.004c-1.768-.765-3.298-1.814-4.58-3.148a14 14 0 0 1-2.946-4.618q-1.033-2.628-1.032-5.584c0-1.967.341-3.82 1.032-5.549a14 14 0 0 1 2.947-4.615c1.283-1.337 2.817-2.375 4.59-3.116l.005-.002c1.814-.747 3.82-1.112 6.005-1.112 2.183 0 4.179.364 5.97 1.113 1.797.74 3.345 1.778 4.63 3.117a14 14 0 0 1 2.946 4.615c.692 1.73 1.033 3.582 1.033 5.55s-.342 3.832-1.032 5.583a14 14 0 0 1-2.947 4.618c-1.283 1.337-2.828 2.386-4.62 3.15l-.007.003c-1.793.75-3.79 1.113-5.973 1.113-2.184 0-4.19-.364-6.005-1.11zm11.6-25.712q-2.48-1.035-5.587-1.036-3.108 0-5.624 1.036-2.48 1.037-4.255 2.886a13 13 0 0 0-2.738 4.292q-.962 2.406-.962 5.18 0 2.776.962 5.217a13 13 0 0 0 2.738 4.292q1.776 1.85 4.255 2.923 2.516 1.036 5.624 1.036t5.587-1.036q2.516-1.073 4.292-2.923a13 13 0 0 0 2.738-4.292q.962-2.442.962-5.217t-.962-5.18a13 13 0 0 0-2.738-4.292q-1.776-1.85-4.292-2.886m-.396 17.965a7.3 7.3 0 0 0 1.53-2.476l.004-.01.004-.01c.369-.931.559-1.964.559-3.11s-.19-2.178-.559-3.11l-.004-.01-.003-.009a6.9 6.9 0 0 0-1.52-2.428l-.006-.006-.005-.006a6.5 6.5 0 0 0-2.281-1.573l-.01-.004-.009-.004c-.876-.384-1.835-.582-2.891-.582s-2.015.198-2.891.582l-.01.004-.009.004a6.9 6.9 0 0 0-2.323 1.58 7.7 7.7 0 0 0-1.53 2.443c-.346.934-.525 1.971-.525 3.12 0 1.148.18 2.184.526 3.12q.562 1.413 1.534 2.485a7.3 7.3 0 0 0 2.328 1.615c.877.362 1.84.548 2.9.548s2.023-.186 2.9-.548a6.9 6.9 0 0 0 2.29-1.614m-1.898 2.533q-1.517.63-3.293.63t-3.293-.63a8.3 8.3 0 0 1-2.664-1.85 9.1 9.1 0 0 1-1.739-2.812q-.592-1.59-.592-3.478 0-1.887.592-3.478a8.7 8.7 0 0 1 1.739-2.775 7.9 7.9 0 0 1 2.664-1.813q1.517-.666 3.293-.666t3.293.666a7.5 7.5 0 0 1 2.627 1.813 7.9 7.9 0 0 1 1.739 2.775q.63 1.591.629 3.478 0 1.887-.629 3.478a8.3 8.3 0 0 1-1.739 2.812 7.9 7.9 0 0 1-2.627 1.85m39.332 6.328v-6.662h4.662V19.116h-4.662v-6.662h16.615v6.662h-4.662v14.576h4.662v6.662zm10.953-5.662V18.116h4.662v-4.662h-14.615v4.662h4.662v16.576h-4.662v4.662h14.615v-4.662zm7.732 5.662V21.002c0-1.57.375-3.018 1.137-4.317l.004-.007.004-.006a8.75 8.75 0 0 1 3.084-3.043 8.3 8.3 0 0 1 4.319-1.175h10.361v6.662h-9.769c-.515 0-.938.173-1.32.55a1.84 1.84 0 0 0-.529 1.336v3.181h10.36v6.662h-10.36v9.51zm6.291-10.509h10.36v-4.662h-10.36v-4.18q0-1.184.814-2.036.852-.85 2.035-.85h8.769v-4.663H135.4a7.3 7.3 0 0 0-3.811 1.036 7.8 7.8 0 0 0-2.738 2.701q-.999 1.702-.999 3.811v18.352h5.291z" clip-rule="evenodd"/><path stroke="#000" d="m30.565 46.973 141.999.587"/><path fill="#fff" stroke="#000" d="M171.064 16.064c0 3.926-.988 7.457-2.56 9.99-1.577 2.54-3.691 4.01-5.94 4.01s-4.362-1.47-5.939-4.01c-1.572-2.533-2.561-6.064-2.561-9.99 0-3.925.989-7.456 2.561-9.989 1.577-2.54 3.69-4.01 5.939-4.01s4.363 1.47 5.94 4.01c1.572 2.533 2.56 6.064 2.56 9.99Zm21 0c0 3.926-.988 7.457-2.56 9.99-1.577 2.54-3.691 4.01-5.94 4.01s-4.362-1.47-5.939-4.01c-1.572-2.533-2.561-6.064-2.561-9.99 0-3.925.989-7.456 2.561-9.989 1.577-2.54 3.69-4.01 5.939-4.01s4.363 1.47 5.94 4.01c1.572 2.533 2.56 6.064 2.56 9.99Z"/><ellipse cx="167.564" cy="15.0645" fill="#000" rx="4" ry="5.5"/><ellipse cx="188.564" cy="15.0645" fill="#000" rx="4" ry="5.5"/><path fill="#fff" stroke="#000" d="M178.064 31.475c0 .934-.508 1.82-1.409 2.49s-2.168 1.1-3.591 1.1c-1.422 0-2.689-.43-3.59-1.1s-1.41-1.556-1.41-2.49c0-.47.125-.73.289-.897.177-.18.465-.317.916-.403.449-.085 1.002-.11 1.655-.11q.475.001 1 .01h.024q.538.01 1.116.012.579-.002 1.117-.011h.024q.525-.01 1-.012c.653.001 1.206.026 1.655.111.451.086.739.223.916.403.164.166.288.428.288.897Z"/></svg>