<svg width="191" height="32" viewBox="0 0 191 32" fill="none" xmlns="http://www.w3.org/2000/svg">
<g clip-path="url(#clip0_9052_2795)">
<path d="M174.779 30.8467L177.283 32L191 2.67153L188.456 1.48218L174.779 30.8467Z" fill="white"/>
<path d="M13.6765 0L0 29.3646L2.50396 30.5178L16.2208 1.18935L13.6765 0Z" fill="white"/>
<path d="M34.0919 13.4451L27.1709 15.6905V8.42816H24.6433V15.6905L17.7223 13.4451L16.9424 15.8446L23.8634 18.0901L19.5854 23.9674L21.6291 25.4496L25.9071 19.5722L30.1851 25.4496L32.2289 23.9674L27.9509 18.0901L34.8719 15.8446L34.0919 13.4451Z" fill="white"/>
<path d="M172.867 15.8446L172.088 13.4451L165.165 15.6905V8.42816H162.64V15.6905L155.718 13.4451L154.938 15.8446L161.859 18.0901L157.582 23.9674L159.626 25.4496L163.904 19.5722L168.181 25.4496L170.226 23.9674L165.948 18.0901L172.867 15.8446Z" fill="white"/>
<path d="M62.7115 18.0539C61.8342 12.8732 57.8301 11.0275 54.3752 11.0275C51.8657 11.0275 49.5313 11.9462 47.8004 13.6143C45.8206 15.5226 44.7737 18.2843 44.7737 21.5998C44.7737 28.5749 49.7955 31.696 54.7728 31.696C57.8677 31.696 60.7706 30.522 62.3459 28.6318L62.3987 28.5679L60.5704 26.7804L60.5093 26.8498C59.1704 28.3459 56.7832 29.0162 55.0106 29.0162C50.0583 29.0162 48.1202 25.2025 47.9561 21.8968H62.8408L62.8478 21.8163C62.9632 20.5395 62.9187 19.2738 62.7129 18.0539H62.7115ZM48.0659 19.3543C48.7138 14.7954 52.191 13.5741 54.1569 13.5741C55.6293 13.5741 57.039 14.1778 58.1263 15.2741C59.2177 16.3747 59.8433 17.8569 59.8516 19.3543H48.0659Z" fill="white"/>
<path d="M144.84 18.0539C143.963 12.8732 139.959 11.0275 136.504 11.0275C133.996 11.0275 131.66 11.9462 129.929 13.6143C127.949 15.5226 126.902 18.2843 126.902 21.5998C126.902 28.5749 131.924 31.696 136.9 31.696C139.995 31.696 142.898 30.522 144.473 28.6318L144.526 28.5679L142.698 26.7804L142.637 26.8498C141.298 28.3459 138.91 29.0162 137.139 29.0162C132.187 29.0162 130.249 25.2025 130.083 21.8968H144.969L144.976 21.8163C145.092 20.5353 145.046 19.2696 144.842 18.0539M130.196 19.3543C130.844 14.7954 134.322 13.5741 136.288 13.5741C137.761 13.5741 139.17 14.1778 140.256 15.2741C141.348 16.3747 141.973 17.8569 141.982 19.3543H130.196Z" fill="white"/>
<path d="M76.2156 2.03174H69.1973V4.68938H72.9261V28.289H68.9387V30.9439H80.1697V28.289H76.2156V2.03174Z" fill="white"/>
<path d="M92.1 4.756C93.3735 4.756 94.4093 3.7318 94.4093 2.47167C94.4093 1.21155 93.3735 0.18457 92.1 0.18457C90.8265 0.18457 89.7865 1.21293 89.7865 2.47584C89.7865 3.73874 90.8251 4.756 92.1 4.756Z" fill="white"/>
<path d="M93.6655 8.68628H86.7528V11.3772H90.3788V28.289H86.4956V30.9439H97.1482V28.289H93.6655V8.68628Z" fill="white"/>
<path d="M112.807 13.8059C115.708 13.8059 117.892 15.8584 118.303 16.272C118.495 16.4635 118.836 16.9326 118.839 16.9367L118.905 17.0283L120.874 14.7301L120.836 14.6746C119.282 12.4028 116.28 10.9914 113.003 10.9914C107.032 10.9914 102.529 15.4338 102.529 21.3236C102.529 27.2134 107.043 31.7321 112.807 31.7321C115.763 31.7321 118.722 30.5234 120.529 28.579L120.583 28.5208L118.674 26.3017L118.608 26.378C117.363 27.7838 115.138 28.7275 113.067 28.7275C109.053 28.7275 105.909 25.3344 105.909 21.003C105.909 16.3275 109.464 13.8045 112.807 13.8045" fill="white"/>
</g>
<defs>
<clipPath id="clip0_9052_2795">
<rect width="191" height="32" fill="white"/>
</clipPath>
</defs>
</svg>
