<svg xmlns="http://www.w3.org/2000/svg" width="256" height="256" viewBox="0 0 256 256" role="img" aria-label="FORIF logo mark">
  <circle cx="128" cy="128" r="128" fill="#1D40BA"/>
  <path fill="#fff" d="M93.75 58.03 C96.52 56.85 94.94 58.16 95.61 59.25 C96.27 60.34 96.93 60.94 97.75 64.57 C98.57 68.19 98.44 77.75 100.53 81 C102.61 84.25 107.4 82.84 110.25 84.04 C113.1 85.25 114.69 86.01 117.65 88.25 C120.61 90.49 125.48 94.83 128.01 97.5 C130.53 100.17 129.68 101.62 132.78 104.25 C135.88 106.88 144.28 111.25 146.61 113.25 C148.93 115.25 147.32 114.75 146.72 116.25 C146.12 117.75 145.3 119.58 143.01 122.25 C140.71 124.92 136.24 129.58 132.97 132.25 C129.71 134.92 122.66 136.1 123.41 138.25 C124.17 140.4 133.61 142.91 137.5 145.15 C141.39 147.39 145.03 150.78 146.75 151.71 C148.47 152.65 147.47 153.7 147.83 150.75 C148.19 147.8 148.37 138.21 148.91 134 C149.44 129.79 149.67 129.42 151.02 125.5 C152.37 121.58 154.97 114.58 157.01 110.5 C159.06 106.42 160.3 104.36 163.3 101 C166.3 97.64 170.84 93.29 175 90.32 C179.16 87.35 184.46 84.88 188.25 83.15 C192.04 81.43 194.55 80.62 197.75 79.97 C200.95 79.32 205.79 70.5 207.48 79.25 C209.17 88 208.57 119.88 207.87 132.5 C207.17 145.12 205.68 147.8 203.29 155 C200.9 162.2 197.84 169.34 193.5 175.67 C189.16 182.01 181.62 188.99 177.25 193 C172.88 197 171.79 197.43 167.25 199.73 C162.71 202.03 155.83 205.09 150 206.78 C144.17 208.47 138.79 209.7 132.25 209.86 C125.71 210.03 116.58 208.82 110.75 207.78 C104.92 206.73 101.17 205.13 97.25 203.6 C93.33 202.07 90.67 200.66 87.25 198.6 C83.83 196.54 80.91 195.03 76.75 191.23 C72.59 187.42 66.42 181.58 62.3 175.75 C58.18 169.92 54.42 162.25 52.02 156.25 C49.62 150.25 48.59 146.12 47.91 139.75 C47.22 133.38 47.05 124.71 47.91 118 C48.76 111.29 51.32 104.29 53.02 99.5 C54.73 94.71 56.09 92.67 58.14 89.25 C60.19 85.83 61.83 82.82 65.3 79 C68.78 75.18 74.26 69.81 79 66.32 C83.74 62.82 90.98 59.21 93.75 58.03 Z"/>
</svg>
