<svg width="296" height="64" viewBox="0 0 296 64" fill="none" xmlns="http://www.w3.org/2000/svg">
<g clip-path="url(#clip0_9052_2782)">
<mask id="mask0_9052_2782" style="mask-type:luminance" maskUnits="userSpaceOnUse" x="0" y="0" width="64" height="64">
<path d="M0 7.62939e-06H64V64H0V7.62939e-06Z" fill="white"/>
</mask>
<g mask="url(#mask0_9052_2782)">
<path d="M0.843688 32.0012C0.843688 14.8403 14.8046 0.881416 31.9642 0.881416C49.1221 0.881416 63.0819 14.8403 63.0819 32.0012C63.0819 49.1612 49.1221 63.1203 31.9642 63.1203C14.8046 63.1203 0.843688 49.1612 0.843688 32.0012ZM0.602783 32.0012C0.602783 49.2928 14.6717 63.3604 31.9642 63.3604C49.2549 63.3604 63.3226 49.2928 63.3226 32.0012C63.3226 14.7094 49.2549 0.639832 31.9642 0.639832C14.6717 0.639832 0.602783 14.7094 0.602783 32.0012Z" fill="white"/>
</g>
<mask id="mask1_9052_2782" style="mask-type:luminance" maskUnits="userSpaceOnUse" x="0" y="0" width="64" height="64">
<path d="M0 7.62939e-06H64V64H0V7.62939e-06Z" fill="white"/>
</mask>
<g mask="url(#mask1_9052_2782)">
<path d="M44.5796 22.0263V23.0752H46.5292C46.5283 23.3017 46.5213 26.8132 46.5213 27.0403H44.513V32.2592H46.5134C46.5134 32.487 46.5201 36.0486 46.5201 36.2762C46.2777 36.2744 33.3594 36.2534 33.1184 36.2534V35.3358H32.0894V36.2762H22.9323C21.1437 36.2762 19.4205 35.4864 18.4386 34.2144C17.5949 33.228 17.0923 31.9505 17.0923 30.7977C17.0923 29.2622 17.4831 28.0988 18.3217 27.1365L18.5005 26.9304C18.5005 26.9304 17.6699 26.9331 17.4872 26.934V23.0752H25.1776V22.0441H29.5381V23.0752H40.1483V22.0355C40.3772 22.0348 44.3506 22.0274 44.5796 22.0263ZM39.9006 21.7881V22.8271H29.7869V21.7957H24.929V22.8271H17.2395V27.1819C17.2395 27.1819 17.7344 27.1812 17.9859 27.1805C17.2199 28.15 16.8446 29.3024 16.8446 30.7977C16.8446 32.0083 17.3687 33.3452 18.2467 34.3709C19.272 35.6971 21.0687 36.5241 22.9323 36.5241H32.3364V35.5833H32.871V36.5009L46.7687 36.5241L46.761 32.0119H44.7604V27.288H46.7687L46.778 22.8271H44.8288V21.7775L39.9006 21.7881Z" fill="white"/>
</g>
<mask id="mask2_9052_2782" style="mask-type:luminance" maskUnits="userSpaceOnUse" x="0" y="0" width="64" height="64">
<path d="M0 7.62939e-06H64V64H0V7.62939e-06Z" fill="white"/>
</mask>
<g mask="url(#mask2_9052_2782)">
<path d="M40.9301 27.1653H39.9365V28.1369H40.9301V28.8126H39.9365V31.8597H39.9338C39.9247 32.8922 38.8105 33.7332 37.4093 33.7332C36.0088 33.7332 34.8942 32.8922 34.886 31.8597C34.8942 30.8263 36.0088 29.9867 37.4093 29.9867C37.9094 29.9867 38.3741 30.0939 38.7633 30.2795V25.4977H39.9365V26.4882H40.9301V27.1653ZM33.7815 27.5286C33.7815 26.4803 34.786 25.6287 36.1077 25.6287C37.4367 25.6287 38.4387 26.4803 38.4387 27.5286C38.4387 28.581 37.4367 29.4299 36.1077 29.4299C34.786 29.4299 33.7815 28.581 33.7815 27.5286ZM30.1779 28.1369H29.2224V31.0094H28.0509V25.4977H29.2224V27.4622H30.1779V28.1369ZM29.2985 33.5104L25.2803 33.5063C24.4511 33.5063 23.9404 33.0274 23.9404 32.2419V30.6784H25.2133V32.8337H29.2985V33.5104ZM23.044 28.4119C23.044 27.8919 23.3481 27.4313 23.8392 27.1306H23.0271V26.4539H27.3374V27.1306H26.5242C27.0125 27.4313 27.3164 27.8919 27.3164 28.4119C27.3164 29.3159 26.3964 30.0503 25.1803 30.0503C23.9643 30.0503 23.044 29.3159 23.044 28.4119ZM24.0365 25.4977H26.3304V26.1724H24.0365V25.4977ZM45.7505 26.4V23.8414H43.7796V22.8437H40.8971V23.8414H28.8065V22.8437H25.924V23.8414H18.3348V26.4H20.6183C19.0349 27.0911 18.0137 28.6006 18.0137 30.8064C18.0137 33.7668 20.7975 35.4523 23.0391 35.4523H31.41V34.5525H33.7793V35.4523H45.7505V32.8942H43.7796V26.4H45.7505ZM37.4093 30.6342C36.6972 30.6342 36.0547 31.0941 36.0547 31.8597C36.0547 32.617 36.6972 33.0825 37.4093 33.0825C38.1237 33.0825 38.7633 32.617 38.7633 31.8597C38.7633 31.0941 38.1237 30.6342 37.4093 30.6342ZM26.2187 28.4119C26.2187 27.7372 25.7556 27.2279 25.1803 27.2279C24.6078 27.2279 24.1431 27.7372 24.1431 28.4119C24.1431 29.0982 24.6078 29.5963 25.1803 29.5963C25.7556 29.5963 26.2187 29.0982 26.2187 28.4119ZM37.242 27.5286C37.242 26.7402 36.734 26.2119 36.1077 26.2119C35.485 26.2119 34.977 26.7402 34.977 27.5286C34.977 28.338 35.4866 28.8508 36.1077 28.8508C36.7354 28.8508 37.242 28.338 37.242 27.5286Z" fill="white"/>
</g>
<mask id="mask3_9052_2782" style="mask-type:luminance" maskUnits="userSpaceOnUse" x="0" y="0" width="64" height="64">
<path d="M0 7.62939e-06H64V64H0V7.62939e-06Z" fill="white"/>
</mask>
<g mask="url(#mask3_9052_2782)">
<path d="M51.5478 14.7621C51.868 14.4632 51.9784 14.1205 51.681 13.7768C51.623 13.7136 51.5494 13.6459 51.4979 13.6215L50.3634 14.6752L50.4857 14.8041C50.7831 15.1247 51.2136 15.0708 51.5478 14.7621ZM51.8903 46.3075C51.427 46.378 51.1014 46.8085 51.1689 47.2741C51.236 47.7405 51.6663 48.0648 52.1326 47.9984C52.5997 47.9302 52.9237 47.4976 52.8548 47.0325C52.7891 46.5658 52.3561 46.2418 51.8903 46.3075ZM15.6679 12.3687C15.4245 12.1619 15.0389 11.8144 14.7811 11.5789L14.7626 11.594C14.9441 11.8927 15.2324 12.3535 15.385 12.6168L15.9328 13.5624L16.4959 13.0866L15.6679 12.3687ZM40.0257 55.3738C39.6112 55.1704 39.1111 55.3402 38.907 55.7547C38.7029 56.1645 38.8751 56.6682 39.289 56.8683C39.7006 57.0735 40.202 56.906 40.4075 56.4926C40.6105 56.078 40.4393 55.5775 40.0257 55.3738ZM6.73888 23.4042L6.72963 23.4252C7.0403 23.5873 7.52481 23.8341 7.79326 23.9809L8.75011 24.5067L8.98559 23.8084L7.90525 23.6216C7.59052 23.5722 7.08094 23.4715 6.73888 23.4042ZM12.9462 47.2741C13.0119 46.8085 12.6881 46.378 12.2248 46.3075C11.7588 46.2418 11.3246 46.5658 11.2614 47.0325C11.1917 47.4976 11.5141 47.9302 11.9814 47.9984C12.4474 48.0648 12.8791 47.7405 12.9462 47.2741ZM24.0876 55.3738C23.6758 55.5775 23.5047 56.078 23.7063 56.4926C23.914 56.906 24.4143 57.0735 24.8273 56.8683C25.2407 56.6682 25.4104 56.1645 25.2066 55.7547C25.0027 55.3402 24.5051 55.1704 24.0876 55.3738ZM58.2868 39.3409C57.313 40.44 55.9374 40.8105 55.9374 40.8105C55.9374 40.8105 56.1376 39.4012 57.1087 38.3006C58.0829 37.2012 59.403 36.9678 59.403 36.9678C59.403 36.9678 59.2581 38.2416 58.2868 39.3409ZM56.7021 43.4368C55.5544 44.3518 54.1343 44.4814 54.1343 44.4814C54.1343 44.4814 54.578 43.1259 55.7254 42.2101C56.8759 41.2971 58.2157 41.2971 58.2157 41.2971C58.2157 41.2971 57.854 42.5235 56.7021 43.4368ZM53.7026 47.7624C53.3326 47.8155 52.9813 47.7794 52.7087 47.6744C52.8851 47.9083 53.0196 48.2339 53.0734 48.6077C53.1854 49.3869 52.9431 50.3623 52.4839 50.4275C52.0206 50.4946 51.5151 49.6278 51.4042 48.8491C51.3507 48.475 51.3873 48.1235 51.4911 47.8491C51.2584 48.0264 50.9317 48.1596 50.558 48.2117C49.7761 48.3269 48.801 48.0837 48.7353 47.6225C48.6694 47.1621 49.5379 46.6559 50.32 46.5466C50.6926 46.4913 51.0441 46.5268 51.3166 46.6308C51.1387 46.3996 51.0059 46.0734 50.9518 45.6995C50.8384 44.9197 51.0807 43.9436 51.5426 43.8768C52.0036 43.8102 52.5076 44.6785 52.6221 45.4597C52.676 45.8334 52.6363 46.1854 52.5351 46.4556C52.7652 46.2807 53.0905 46.147 53.4656 46.0939C54.2449 45.9822 55.2228 46.2229 55.2873 46.6816C55.3558 47.142 54.4856 47.6509 53.7026 47.7624ZM48.8732 53.3829C47.5258 53.6909 46.2648 53.2204 46.2648 53.2204C46.2648 53.2204 47.1953 52.248 48.5459 51.9373C49.8919 51.6309 51.0333 52.1786 51.0333 52.1786C51.0333 52.1786 50.2238 53.0723 48.8732 53.3829ZM45.0827 55.6935C43.7653 55.6908 42.6953 54.9808 42.6953 54.9808C42.6953 54.9808 43.7677 54.2788 45.0894 54.2851C46.4093 54.2874 47.3492 55.0408 47.3492 55.0408C47.3492 55.0408 46.4041 55.6981 45.0827 55.6935ZM42.5619 57.5542C42.3609 57.9619 41.3774 57.891 40.6893 57.5508C40.3565 57.388 40.0932 57.1622 39.9309 56.9295C39.944 57.2133 39.8704 57.5512 39.706 57.8852C39.3678 58.5742 38.632 59.2304 38.2254 59.0253C37.8147 58.8264 37.8883 57.847 38.2308 57.1527C38.3924 56.8222 38.6173 56.5603 38.8503 56.3982C38.5645 56.412 38.2292 56.3377 37.8962 56.1747C37.2037 55.8351 36.5483 55.1007 36.7526 54.69C36.9515 54.282 37.9343 54.3536 38.6268 54.694C38.9582 54.8564 39.2204 55.0835 39.3836 55.3145C39.3678 55.0304 39.4414 54.6934 39.6058 54.3628C39.9469 53.6688 40.6814 53.0156 41.0893 53.2179C41.4984 53.4191 41.4248 54.4016 41.0853 55.0925C40.9209 55.4246 40.6985 55.6843 40.4642 55.8489C40.7498 55.8367 41.0869 55.9049 41.4167 56.0695C42.1108 56.412 42.7637 57.1473 42.5619 57.5542ZM31.9652 58.5365C31.3859 58.5365 30.9163 58.068 30.9163 57.4876C30.9163 56.9098 31.3859 56.4411 31.9652 56.4411C32.5432 56.4411 33.0131 56.9098 33.0131 57.4876C33.0131 58.068 32.5432 58.5365 31.9652 58.5365ZM26.2174 56.1747C25.8871 56.3377 25.5504 56.412 25.2632 56.3982C25.4976 56.5603 25.7227 56.8222 25.8846 57.1527C26.2269 57.847 26.2991 58.8264 25.8911 59.0253C25.4818 59.2304 24.746 58.5742 24.4064 57.8852C24.2421 57.5512 24.1707 57.2133 24.184 56.9295C24.0208 57.1622 23.76 57.388 23.4256 57.5508C22.7348 57.891 21.7556 57.9619 21.5515 57.5542C21.3512 57.1473 22.003 56.412 22.6966 56.0695C23.0283 55.9049 23.3651 55.8367 23.6507 55.8489C23.4166 55.6843 23.194 55.4246 23.0283 55.0925C22.6887 54.4016 22.6162 53.4191 23.0256 53.2179C23.4349 53.0156 24.1669 53.6688 24.5105 54.3628C24.6737 54.6934 24.746 55.0304 24.7315 55.3145C24.8934 55.0835 25.154 54.8564 25.4883 54.694C26.1808 54.3536 27.1625 54.282 27.3639 54.69C27.5655 55.1007 26.9096 55.8351 26.2174 56.1747ZM19.0322 55.6935C17.7108 55.6981 16.767 55.0408 16.767 55.0408C16.767 55.0408 17.7069 54.2874 19.0259 54.2851C20.3472 54.2788 21.4201 54.9808 21.4201 54.9808C21.4201 54.9808 20.3499 55.6908 19.0322 55.6935ZM15.2417 53.3829C13.8899 53.0723 13.0816 52.1786 13.0816 52.1786C13.0816 52.1786 14.2216 51.6309 15.5693 51.9373C16.9196 52.248 17.8505 53.2204 17.8505 53.2204C17.8505 53.2204 16.5893 53.6909 15.2417 53.3829ZM12.7118 48.8491C12.6001 49.6278 12.0932 50.4946 11.634 50.4275C11.1707 50.3623 10.9298 49.3869 11.039 48.6077C11.0968 48.2339 11.2285 47.9083 11.4048 47.6744C11.1336 47.7794 10.781 47.8155 10.4098 47.7624C9.62929 47.6509 8.75914 47.142 8.82642 46.6816C8.89348 46.2229 9.86884 45.9822 10.6482 46.0939C11.0232 46.147 11.3497 46.2807 11.5786 46.4556C11.4773 46.1854 11.4378 45.8334 11.4931 45.4597C11.6062 44.6785 12.1117 43.8102 12.5725 43.8768C13.0331 43.9436 13.2765 44.9197 13.1634 45.6995C13.1092 46.0734 12.9764 46.3996 12.7987 46.6308C13.0724 46.5268 13.4226 46.4913 13.7962 46.5466C14.5758 46.6559 15.4455 47.1621 15.381 47.6225C15.3128 48.0837 14.3374 48.3269 13.5556 48.2117C13.183 48.1596 12.8552 48.0264 12.6249 47.8491C12.729 48.1235 12.7647 48.475 12.7118 48.8491ZM5.89899 41.2971C5.89899 41.2971 7.24033 41.2971 8.38932 42.2101C9.53717 43.1259 9.97947 44.4814 9.97947 44.4814C9.97947 44.4814 8.56045 44.3518 7.41012 43.4368C6.26227 42.5235 5.89899 41.2971 5.89899 41.2971ZM4.71456 36.9678C4.71456 36.9678 6.0322 37.2012 7.00462 38.3006C7.97614 39.4012 8.17754 40.8105 8.17754 40.8105C8.17754 40.8105 6.80345 40.44 5.83058 39.3409C4.85657 38.2416 4.71456 36.9678 4.71456 36.9678ZM8.15248 36.3961C8.16038 37.2028 7.65622 37.8594 7.65622 37.8594C7.65622 37.8594 7.14167 37.2128 7.13106 36.4065C7.12316 35.6027 7.62461 34.9414 7.62461 34.9414C7.62461 34.9414 8.14209 35.591 8.15248 36.3961ZM9.6925 38.6117C9.41073 39.8261 8.55526 40.6626 8.55526 40.6626C8.55526 40.6626 8.20779 39.6482 8.48956 38.4381C8.7684 37.2229 9.6426 36.5537 9.6426 36.5537C9.6426 36.5537 9.97156 37.3997 9.6925 38.6117ZM4.48698 28.8403L6.58219 29.1128L6.71902 28.0704L4.608 27.7978L4.79336 26.7995L9.9806 27.4786L9.79636 28.477L7.64696 28.1927L7.51014 29.2365L9.65818 29.5214L9.57916 30.5185L4.3908 29.838L4.48698 28.8403ZM11.0903 42.0236C11.0232 43.2661 10.3269 44.2408 10.3269 44.2408C10.3269 44.2408 9.80968 43.3031 9.8729 42.0561C9.94108 40.8137 10.6864 40.0045 10.6864 40.0045C10.6864 40.0045 11.1535 40.7796 11.0903 42.0236ZM5.97688 22.5022L11.3034 23.222L10.9521 24.1403L9.75956 23.9711L9.46086 24.8528L10.5085 25.4491L10.2321 26.4059L5.59645 23.6104L5.97688 22.5022ZM7.67067 18.7437L11.4694 19.3436L11.4773 19.3312L8.31458 17.6419L8.78691 16.8871L13.3332 19.484L12.829 20.2646L9.15154 19.6868L9.10796 19.6662L12.1998 21.3636L11.7997 22.1593L7.24688 19.5525L7.67067 18.7437ZM10.5466 14.4838L11.7496 15.0279C12.0629 15.1726 12.4181 15.3453 12.7617 15.5354L12.7698 15.5241C12.5249 15.2327 12.2919 14.9233 12.0695 14.6154L11.3246 13.5768L12.0273 12.8182L13.6779 15.7282L15.2324 17.049L14.577 17.8151L13.0552 16.5194L9.88193 15.3169L10.5466 14.4838ZM14.6269 10.4396L18.8257 13.8046L18.0305 14.4099L17.0736 13.6249L16.3629 14.225L16.9711 15.3045L16.2484 15.9816L13.7068 11.2177L14.6269 10.4396ZM18.0189 8.09809L19.7152 9.49858C20.043 9.77494 20.5854 10.2278 20.9328 10.5527L20.9459 10.5475C20.6554 10.0849 20.1589 9.32993 19.6969 8.49817L19.1347 7.48082L19.9247 7.07938L22.4704 11.6624L21.6463 12.0632L19.9746 10.7076C19.6127 10.4067 19.0889 9.95082 18.7611 9.59658L18.7466 9.60447C19.0205 10.0506 19.4404 10.7307 19.9484 11.6446L20.5262 12.6877L19.768 13.153L17.2317 8.57471L18.0189 8.09809ZM24.0761 5.44475C24.4498 5.3269 24.7512 5.31041 24.9291 5.33412L25.0248 6.21465C24.8645 6.19275 24.6699 6.20811 24.4263 6.2851C23.776 6.49507 23.3995 7.10693 23.8113 8.39566C24.1917 9.58077 24.7893 9.85599 25.2357 9.7133C25.3238 9.68485 25.3856 9.65663 25.4197 9.63134L25.0368 8.43901L24.5986 8.5799L24.3459 7.796L25.6712 7.3695L26.515 10.0059C26.3332 10.1619 25.9067 10.3949 25.5489 10.5094C24.9842 10.6902 24.5076 10.6647 24.0734 10.441C23.5193 10.1671 23.0558 9.5092 22.7982 8.65486C22.2451 6.85564 23.031 5.78161 24.0761 5.44475ZM30.5227 4.3626L30.6361 7.74001C30.6625 8.50087 30.902 8.72327 31.1612 8.71469C31.4534 8.70475 31.6546 8.48981 31.6275 7.70659L31.5069 4.33393L32.5195 4.34025L32.6272 7.49662C32.6721 8.82396 32.1971 9.56316 31.1994 9.59725C30.1161 9.63496 29.6686 8.90502 29.6239 7.60725L29.5158 4.43914L30.5227 4.3626ZM35.0493 4.501L35.9468 4.61412L36.6973 8.35141L36.7115 8.35412L37.2053 4.82545L38.0779 5.00764L37.1999 10.1646L36.3035 9.97836L35.598 6.24694L35.5835 6.24355L35.0507 9.75846L34.1675 9.65528L35.0493 4.501ZM40.3337 5.62424L41.2882 5.94823L39.6071 10.8952L38.6548 10.5694L40.3337 5.62424ZM42.9951 6.61812L44.0075 7.07351L42.7174 10.9926L42.7319 10.9984L45.1328 7.65331L46.0881 8.20353L42.6621 12.2664L41.6669 11.7566L42.9951 6.61812ZM49.5248 10.6114L48.98 11.3269L47.9875 10.5785L47.2704 11.5288L48.214 12.2422L47.7114 12.9101L46.7661 12.1975L45.9237 13.3135L46.9909 14.1191L46.4513 14.8423L44.5812 13.4319L47.7283 9.25565L49.5248 10.6114ZM52.177 13.1201C52.5523 13.5249 52.8103 13.9538 52.8155 14.412C52.8234 14.8326 52.6324 15.1381 52.3051 15.4413C51.8982 15.819 51.3507 15.9612 50.8095 15.7407L50.798 15.7499C50.9387 16.1039 50.8149 16.4579 50.4781 16.9081C50.1236 17.3735 49.7249 17.9797 49.6486 18.1777L48.9575 17.3358C49.022 17.1926 49.3262 16.7535 49.6919 16.3094C50.0999 15.8 50.1252 15.5571 49.8962 15.309L49.7971 15.2038L48.2835 16.6101L47.5637 15.9005L51.3981 12.3416C51.6273 12.564 51.9167 12.8383 52.177 13.1201ZM53.3141 16.9075C54.0131 16.458 54.8922 16.5489 55.4806 17.4595C55.661 17.7447 55.7597 18.0659 55.7651 18.2457L54.9491 18.5778C54.9476 18.4075 54.8979 18.1743 54.7387 17.9275C54.5059 17.5656 54.1752 17.532 53.9422 17.6828C53.6843 17.8485 53.6301 18.0659 53.6502 18.7214C53.6712 19.5195 53.3696 20.0151 52.9104 20.3106C52.1156 20.8218 51.2136 20.5716 50.6637 19.7191C50.4408 19.3716 50.3096 18.9695 50.3026 18.7747L51.1123 18.427C51.1267 18.6627 51.2477 19.0049 51.4058 19.2497C51.6625 19.6525 51.9953 19.7146 52.2798 19.5301C52.5956 19.3242 52.6257 19.032 52.627 18.5114C52.6062 17.6828 52.9194 17.1615 53.3141 16.9075ZM18.1951 52.9124C18.1951 52.9124 17.3093 52.2766 16.8183 51.1073C16.3313 49.9369 16.658 48.8631 16.658 48.8631C16.658 48.8631 17.4331 49.3704 17.9203 50.5368C18.4068 51.7115 18.1951 52.9124 18.1951 52.9124ZM21.6711 54.5529C21.6711 54.5529 20.6603 54.1366 19.922 53.1025C19.1822 52.0759 19.2571 50.9585 19.2571 50.9585C19.2571 50.9585 20.1261 51.2742 20.8644 52.3037C21.6056 53.3342 21.6711 54.5529 21.6711 54.5529ZM44.1904 53.1025C43.4546 54.1366 42.444 54.5529 42.444 54.5529C42.444 54.5529 42.5108 53.3342 43.2491 52.3037C43.9865 51.2742 44.8562 50.9585 44.8562 50.9585C44.8562 50.9585 44.9327 52.0759 44.1904 53.1025ZM47.2966 51.1073C46.8044 52.2766 45.9185 52.9124 45.9185 52.9124C45.9185 52.9124 45.7078 51.7115 46.1953 50.5368C46.6818 49.3704 47.4558 48.8631 47.4558 48.8631C47.4558 48.8631 47.7821 49.9369 47.2966 51.1073ZM31.8824 52.6828C20.4614 52.6383 11.2364 43.3404 11.2824 31.919C11.3271 20.4969 20.6251 11.2727 32.047 11.3181C43.4663 11.3631 52.6877 20.6612 52.6417 32.0833C52.5981 43.5041 43.302 52.7289 31.8824 52.6828ZM57.3101 20.9371L52.5929 23.1358L52.1705 22.2218L56.8877 20.0257L57.3101 20.9371ZM58.8621 25.4522L57.9712 25.7261L57.7316 24.8359L53.6236 26.0986L53.3274 25.1364L57.4354 23.8743L57.1444 23.0062L58.0342 22.7357L58.8621 25.4522ZM53.7893 44.2408C53.7893 44.2408 53.0905 43.2661 53.0262 42.0236C52.9616 40.7796 53.4301 40.0045 53.4301 40.0045C53.4301 40.0045 54.1752 40.8137 54.2395 42.0561C54.307 43.3031 53.7893 44.2408 53.7893 44.2408ZM55.5585 40.6626C55.5585 40.6626 54.7042 39.8261 54.4226 38.6117C54.1433 37.3997 54.4723 36.5537 54.4723 36.5537C54.4723 36.5537 55.344 37.2229 55.6244 38.4381C55.9085 39.6482 55.5585 40.6626 55.5585 40.6626ZM56.9827 36.4065C56.9746 37.2128 56.4589 37.8594 56.4589 37.8594C56.4589 37.8594 55.9545 37.2028 55.9638 36.3961C55.9744 35.591 56.4903 34.9414 56.4903 34.9414C56.4903 34.9414 56.9915 35.6027 56.9827 36.4065ZM59.3371 27.9216L57.0495 28.8258L57.052 28.8423L59.4821 29.1055L59.5636 30.1342L56.2903 29.3686L54.2899 29.6201L54.1594 28.6176L56.1257 28.3743L59.1599 26.8541L59.3371 27.9216ZM32.0813 2.36334C15.7167 2.29877 2.39425 15.5142 2.32832 31.8835C2.2651 48.2517 15.4823 61.5712 31.8469 61.6362C48.2126 61.7013 61.5339 48.4867 61.5985 32.1181C61.6644 15.7492 48.447 2.42859 32.0813 2.36334Z" fill="white"/>
</g>
<mask id="mask4_9052_2782" style="mask-type:luminance" maskUnits="userSpaceOnUse" x="0" y="0" width="64" height="64">
<path d="M0 7.62939e-06H64V64H0V7.62939e-06Z" fill="white"/>
</mask>
<g mask="url(#mask4_9052_2782)">
<path d="M28.7618 41.5821C28.6536 41.6045 28.5579 41.6438 28.4721 41.6986C28.3893 41.7515 28.3206 41.8251 28.2707 41.9158C28.222 42.0066 28.1971 42.1188 28.1971 42.2545C28.1971 42.3893 28.222 42.5017 28.2707 42.5934C28.3206 42.6844 28.3893 42.7551 28.4721 42.811C28.5579 42.8637 28.6536 42.9027 28.7618 42.9271C28.8706 42.9499 28.9801 42.9619 29.0935 42.9619C29.2066 42.9619 29.3131 42.9499 29.4238 42.9271C29.5317 42.9027 29.6277 42.8637 29.7121 42.811C29.7974 42.7551 29.8647 42.6844 29.9148 42.5934C29.962 42.5017 29.9857 42.3893 29.9857 42.2545C29.9857 42.1188 29.962 42.0066 29.9148 41.9158C29.8647 41.8251 29.7974 41.7515 29.7121 41.6986C29.6277 41.6438 29.5317 41.6045 29.4238 41.5821C29.3131 41.5593 29.2066 41.5456 29.0935 41.5456C28.9801 41.5456 28.8706 41.5593 28.7618 41.5821ZM27.8235 43.8216L27.9072 43.8699C27.9072 43.8964 27.9113 43.9248 27.9194 43.9614C27.9246 43.9971 27.9379 44.0305 27.9562 44.0569C28.0034 44.1237 28.0666 44.1829 28.1457 44.2314C28.2274 44.2806 28.3114 44.3224 28.4039 44.352C28.4933 44.3834 28.5879 44.4086 28.6801 44.4188C28.7738 44.4328 28.8607 44.4396 28.9343 44.4396C29.6647 44.4396 30.0541 44.0266 30.1029 43.2066C29.9042 43.3166 29.7067 43.4103 29.5105 43.4891C29.3118 43.5674 29.1066 43.606 28.8907 43.606C28.7207 43.606 28.5484 43.5816 28.368 43.5367C28.1906 43.4891 28.0285 43.4179 27.8862 43.3172C27.7429 43.2186 27.6246 43.089 27.5349 42.9343C27.4442 42.7792 27.397 42.5911 27.397 42.3708C27.397 42.1068 27.4494 41.8786 27.5573 41.6914C27.6586 41.5036 27.7982 41.3489 27.968 41.2259C28.1364 41.1033 28.326 41.0152 28.534 40.957C28.7446 40.8974 28.9499 40.8718 29.1565 40.8718C29.4145 40.8718 29.65 40.9188 29.8647 41.0159C30.0779 41.1107 30.2634 41.2475 30.4176 41.4218C30.5716 41.5961 30.6926 41.8036 30.7742 42.0423C30.8597 42.2823 30.9033 42.5455 30.9033 42.8334C30.9033 43.1736 30.8543 43.4798 30.7586 43.751C30.6637 44.0251 30.5256 44.2601 30.349 44.4552C30.1684 44.6518 29.9595 44.7988 29.7121 44.9015C29.4671 45.0009 29.1881 45.0535 28.8853 45.0535C28.6762 45.0535 28.4933 45.0359 28.3484 45.0031C28.1996 44.9677 28.0759 44.9277 27.9786 44.8769C27.8799 44.829 27.7995 44.7855 27.7404 44.7455C27.6783 44.7067 27.627 44.6866 27.5902 44.6866C27.5415 44.6866 27.4941 44.7035 27.4586 44.7342L27.4019 44.6787L27.8235 43.8216Z" fill="white"/>
</g>
<mask id="mask5_9052_2782" style="mask-type:luminance" maskUnits="userSpaceOnUse" x="0" y="0" width="64" height="64">
<path d="M0 7.62939e-06H64V64H0V7.62939e-06Z" fill="white"/>
</mask>
<g mask="url(#mask5_9052_2782)">
<path d="M36.3903 41.5821C36.2815 41.6045 36.1851 41.6438 36.0999 41.6986C36.0184 41.7515 35.9496 41.8251 35.8995 41.9158C35.852 42.0066 35.8256 42.1188 35.8256 42.2545C35.8256 42.3893 35.852 42.5017 35.8995 42.5934C35.9496 42.6844 36.0184 42.7551 36.0999 42.811C36.1851 42.8637 36.2815 42.9027 36.3903 42.9271C36.4984 42.9499 36.6077 42.9619 36.7224 42.9619C36.8355 42.9619 36.9421 42.9499 37.0514 42.9271C37.1602 42.9027 37.2564 42.8637 37.3422 42.811C37.4266 42.7551 37.4921 42.6844 37.5436 42.5934C37.5919 42.5017 37.616 42.3893 37.616 42.2545C37.616 42.1188 37.5919 42.0066 37.5436 41.9158C37.4921 41.8251 37.4266 41.7515 37.3422 41.6986C37.2564 41.6438 37.1602 41.6045 37.0514 41.5821C36.9421 41.5593 36.8355 41.5456 36.7224 41.5456C36.6077 41.5456 36.4984 41.5593 36.3903 41.5821ZM35.4522 43.8216L35.5362 43.8699C35.5362 43.8964 35.5416 43.9248 35.5493 43.9614C35.5547 43.9971 35.5664 44.0305 35.5849 44.0569C35.6337 44.1237 35.6954 44.1829 35.776 44.2314C35.8545 44.2806 35.9405 44.3224 36.0322 44.352C36.123 44.3834 36.2167 44.4086 36.3104 44.4188C36.4034 44.4328 36.4892 44.4396 36.563 44.4396C37.2945 44.4396 37.6829 44.0266 37.7316 43.2066C37.5343 43.3166 37.3356 43.4103 37.1394 43.4891C36.9421 43.5674 36.7339 43.606 36.5194 43.606C36.3512 43.606 36.176 43.5816 35.997 43.5367C35.8179 43.4891 35.6558 43.4179 35.5136 43.3172C35.3705 43.2186 35.2533 43.089 35.1612 42.9343C35.0718 42.7792 35.0246 42.5911 35.0246 42.3708C35.0246 42.1068 35.0779 41.8786 35.1846 41.6914C35.2885 41.5036 35.426 41.3489 35.5953 41.2259C35.7651 41.1033 35.9545 41.0152 36.1627 40.957C36.3707 40.8974 36.5804 40.8718 36.7838 40.8718C37.0423 40.8718 37.2776 40.9188 37.4921 41.0159C37.7068 41.1107 37.8937 41.2475 38.0459 41.4218C38.2004 41.5961 38.3202 41.8036 38.4042 42.0423C38.4884 42.2823 38.5304 42.5455 38.5304 42.8334C38.5304 43.1736 38.4846 43.4798 38.3859 43.751C38.292 44.0251 38.1541 44.2601 37.9764 44.4552C37.7973 44.6518 37.5871 44.7988 37.3408 44.9015C37.0947 45.0009 36.8184 45.0535 36.5142 45.0535C36.3036 45.0535 36.123 45.0359 35.9771 45.0031C35.8286 44.9677 35.7046 44.9277 35.6059 44.8769C35.5073 44.829 35.4283 44.7855 35.3691 44.7455C35.3057 44.7067 35.2573 44.6866 35.219 44.6866C35.1691 44.6866 35.1244 44.7035 35.086 44.7342L35.0309 44.6787L35.4522 43.8216Z" fill="white"/>
</g>
<mask id="mask6_9052_2782" style="mask-type:luminance" maskUnits="userSpaceOnUse" x="0" y="0" width="64" height="64">
<path d="M0 7.62939e-06H64V64H0V7.62939e-06Z" fill="white"/>
</mask>
<g mask="url(#mask6_9052_2782)">
<path d="M31.1967 41.4844L31.281 41.4142C31.3175 41.4393 31.3586 41.4515 31.399 41.4515C31.4257 41.4515 31.465 41.4219 31.5309 41.3621C31.5939 41.302 31.6865 41.2372 31.8088 41.1625C31.9301 41.0862 32.0854 41.0214 32.276 40.9631C32.4667 40.9019 32.6973 40.8717 32.9698 40.8717C33.1529 40.8717 33.3344 40.8904 33.52 40.9315C33.7054 40.9742 33.8713 41.0408 34.0214 41.1343C34.1738 41.2246 34.3001 41.3404 34.3938 41.4844C34.4899 41.6278 34.5371 41.801 34.5371 42.0024C34.5371 42.1923 34.4899 42.3638 34.3899 42.5217C34.291 42.6829 34.1565 42.7815 33.9874 42.8251V42.8405C34.1869 42.8901 34.3515 42.9949 34.4805 43.1486C34.6096 43.3031 34.6742 43.4961 34.6742 43.7318C34.6742 43.9971 34.6139 44.217 34.4951 44.3879C34.3755 44.5616 34.224 44.6979 34.0503 44.7989C33.8727 44.902 33.676 44.9677 33.4645 45.0007C33.2538 45.0357 33.0529 45.0535 32.867 45.0535C32.655 45.0535 32.4575 45.0303 32.2748 44.9862C32.0901 44.9443 31.9301 44.8898 31.7903 44.8316C31.6506 44.7724 31.5334 44.7182 31.4426 44.667C31.3512 44.6189 31.2834 44.5941 31.248 44.5941C31.2256 44.5941 31.2044 44.5988 31.1873 44.6112C31.1717 44.6205 31.1545 44.6306 31.1349 44.6395L31.0714 44.6182L31.4796 43.495L31.5575 43.5383C31.5537 43.5508 31.5496 43.5675 31.5496 43.595V43.6485C31.5496 43.7686 31.6018 43.8768 31.7059 43.9693C31.8088 44.0655 31.9301 44.1448 32.0732 44.2082C32.2168 44.273 32.3681 44.3227 32.5234 44.3588C32.6826 44.3897 32.8142 44.4092 32.9208 44.4092C33.0052 44.4092 33.1061 44.4006 33.2211 44.3807C33.3344 44.362 33.4448 44.3279 33.5423 44.2814C33.6421 44.2342 33.7266 44.1714 33.7975 44.0926C33.867 44.0089 33.9043 43.9025 33.9043 43.7729C33.9043 43.6463 33.8702 43.5456 33.8043 43.4715C33.7356 43.3923 33.6541 43.3363 33.5566 43.2922C33.4593 43.2514 33.3563 43.2245 33.2459 43.2107C33.1366 43.1976 33.042 43.1909 32.963 43.1909C32.8483 43.1909 32.7524 43.2012 32.6693 43.2265C32.5875 43.2493 32.5327 43.308 32.5051 43.4015H32.4209V42.3392H32.5051C32.5139 42.4433 32.5656 42.5138 32.655 42.5454C32.7469 42.5819 32.8483 42.5975 32.963 42.5975C33.0366 42.5975 33.1249 42.591 33.2238 42.574C33.3211 42.5591 33.413 42.5307 33.499 42.4896C33.5841 42.4474 33.6582 42.3887 33.7173 42.3176C33.7778 42.2455 33.8094 42.1525 33.8094 42.0453C33.8094 41.9398 33.783 41.8576 33.7282 41.7915C33.676 41.7269 33.6069 41.6773 33.52 41.6411C33.4328 41.6043 33.3382 41.5786 33.2315 41.5657C33.1274 41.554 33.021 41.5456 32.9131 41.5456C32.7864 41.5456 32.6575 41.5619 32.5264 41.596C32.3945 41.6224 32.2748 41.666 32.1669 41.7195C32.0599 41.7689 31.9707 41.8292 31.9007 41.8904C31.8285 41.9529 31.7944 42.0159 31.7944 42.0773C31.7944 42.101 31.798 42.1247 31.8007 42.1509C31.8059 42.1821 31.8129 42.2101 31.8222 42.2347L31.7601 42.2828L31.1967 41.4844Z" fill="white"/>
</g>
<mask id="mask7_9052_2782" style="mask-type:luminance" maskUnits="userSpaceOnUse" x="0" y="0" width="64" height="64">
<path d="M0 7.62939e-06H64V64H0V7.62939e-06Z" fill="white"/>
</mask>
<g mask="url(#mask7_9052_2782)">
<path d="M25.7633 44.939C25.8119 44.939 25.8516 44.9257 25.887 44.8945C25.9216 44.8674 25.941 44.8094 25.941 44.7191V42.1075C25.9056 42.1075 25.8685 42.1075 25.8252 42.1154C25.7793 42.1188 25.7371 42.1276 25.6938 42.1412C25.6504 42.1549 25.6132 42.1728 25.5777 42.1967C25.5423 42.2202 25.5186 42.252 25.5053 42.2947H25.4213V41.3101H25.5053C25.5053 41.3561 25.5265 41.3884 25.5687 41.4049C25.6132 41.4252 25.6504 41.4338 25.6884 41.4338C25.7674 41.4338 25.8358 41.4049 25.8898 41.3498C25.9451 41.297 25.9713 41.2295 25.9713 41.1511C25.9713 41.0782 25.9568 41.0315 25.9266 41.0125C25.8949 40.991 25.8554 40.9737 25.8028 40.9633V40.8716H26.9376V40.9633C26.8834 40.9737 26.8349 40.9942 26.7965 41.0184C26.761 41.0455 26.7414 41.0836 26.7414 41.1362V44.7191C26.7414 44.8094 26.761 44.8674 26.7965 44.8945C26.8349 44.9257 26.8771 44.939 26.9243 44.939V45.0316H25.7633V44.939Z" fill="white"/>
</g>
</g>
<g clip-path="url(#clip1_9052_2782)">
<mask id="mask8_9052_2782" style="mask-type:luminance" maskUnits="userSpaceOnUse" x="72" y="0" width="224" height="64">
<path d="M72 0H296V64H72V0Z" fill="white"/>
</mask>
<g mask="url(#mask8_9052_2782)">
<path d="M151.547 27.7913H149.893V20.0969H146.538V34.2726H139.875V22.206H144.791V20.0969H136.307V36.3851H146.538V44.9819H149.893V29.9024H151.547V44.9819H154.902V20.0969H151.547V27.7913ZM128.051 20.1214H124.461V33.3929H128.051V29.9024H131.567V27.7913H128.051V24.7827H131.567V22.7039H128.051V20.1214ZM197.502 41.1936V30.4064H194.208V41.1936H191.844V30.4064H188.55V41.1936H184.942V43.2989H204.47V41.1936H197.502ZM121.545 43.8328C117.092 43.8328 117.092 35.4083 121.545 35.4083C125.971 35.4083 125.971 43.8328 121.545 43.8328ZM121.545 33.4925C112.445 33.4925 112.411 45.8073 121.545 45.8073C130.678 45.8073 130.621 33.4925 121.545 33.4925ZM166.398 24.0112C170.448 24.0112 170.448 32.1837 166.398 32.1837C162.316 32.1837 162.316 24.0112 166.398 24.0112ZM170.306 23.385H173.535V21.2768H168.184V19.2739H164.615V21.2768H159.269V23.385H162.483C158.534 26.4272 159.842 34.0451 166.405 34.0451C172.938 34.0451 174.233 26.4272 170.306 23.385ZM178.94 20.0969H175.374V34.7002H178.94V28.2747H182.452V26.1992H178.94V20.0969ZM162.917 37.9291H175.374V44.9525H178.94V35.8488H162.917V37.9291ZM90.3969 24.0112C94.4425 24.0112 94.4425 32.1837 90.3969 32.1837C86.3109 32.1837 86.3109 24.0112 90.3969 24.0112ZM94.3008 23.385H97.5253V21.2768H92.1783V19.2739H88.6122V21.2768H83.2589V23.385H86.4795C82.5328 26.4272 83.8323 34.0451 90.3969 34.0451C96.936 34.0451 98.2336 26.4272 94.3008 23.385ZM115.755 21.5432C120.068 21.5432 120.068 30.4858 115.755 30.4858C111.418 30.4858 111.418 21.5432 115.755 21.5432ZM115.755 19.5582C106.919 19.5582 106.919 32.4487 115.755 32.4487C124.571 32.4487 124.571 19.5582 115.755 19.5582ZM199.722 39.2206H203.079V20.069H185.811V22.1767H199.722V39.2206ZM91.1269 35.8488H87.5608V44.9525H103.353V42.8463H91.1269V35.8488ZM102.936 20.0969H99.3698V37.9291H102.936V28.2747H106.446V26.1992H102.936V20.0969Z" fill="white"/>
</g>
<mask id="mask9_9052_2782" style="mask-type:luminance" maskUnits="userSpaceOnUse" x="72" y="0" width="224" height="64">
<path d="M72 0H296V64H72V0Z" fill="white"/>
</mask>
<g mask="url(#mask9_9052_2782)">
<path d="M215.888 39.5103C216.924 40.3602 218.478 41.099 220.11 41.099C222.156 41.099 223.296 39.7321 223.296 37.7004C223.296 35.8163 222.415 34.7081 220.188 33.5629C217.313 32.0853 215.474 29.9059 215.474 26.3226C215.474 22.2592 217.856 19.1563 221.638 19.1563C223.529 19.1563 224.928 19.7474 225.834 20.4122L225.057 24.0696C224.435 23.5891 223.218 22.8873 221.586 22.8873C219.566 22.8873 218.686 24.4385 218.686 25.8796C218.686 27.8002 219.696 28.6871 222.027 29.98C225.057 31.6053 226.533 33.7846 226.533 37.368C226.533 41.3573 224.409 44.8296 219.903 44.8296C218.064 44.8296 216.147 44.0913 215.189 43.2784L215.888 39.5103Z" fill="white"/>
</g>
<mask id="mask10_9052_2782" style="mask-type:luminance" maskUnits="userSpaceOnUse" x="72" y="0" width="224" height="64">
<path d="M72 0H296V64H72V0Z" fill="white"/>
</mask>
<g mask="url(#mask10_9052_2782)">
<path d="M239.175 33.4152H232.596V40.7297H239.952V44.4607H229.41V19.5627H239.564V23.2938H232.596V29.7212H239.175V33.4152Z" fill="white"/>
</g>
<mask id="mask11_9052_2782" style="mask-type:luminance" maskUnits="userSpaceOnUse" x="72" y="0" width="224" height="64">
<path d="M72 0H296V64H72V0Z" fill="white"/>
</mask>
<g mask="url(#mask11_9052_2782)">
<path d="M245.212 32.1223C245.212 37.1833 246.999 41.2096 250.055 41.2096C253.137 41.2096 254.873 37.1462 254.873 31.9376C254.873 27.2465 253.241 22.8137 250.055 22.8137C246.895 22.8137 245.212 26.9877 245.212 32.1223ZM258.24 31.7529C258.24 40.1014 254.691 44.8671 249.873 44.8671C244.952 44.8671 241.844 39.5103 241.844 32.1964C241.844 24.5496 245.212 19.1562 250.133 19.1562C255.235 19.1562 258.24 24.6602 258.24 31.7529Z" fill="white"/>
</g>
<mask id="mask12_9052_2782" style="mask-type:luminance" maskUnits="userSpaceOnUse" x="72" y="0" width="224" height="64">
<path d="M72 0H296V64H72V0Z" fill="white"/>
</mask>
<g mask="url(#mask12_9052_2782)">
<path d="M264.148 19.5628V34.0805C264.148 38.9563 265.572 41.2097 267.722 41.2097C270.027 41.2097 271.4 38.9563 271.4 34.0805V19.5628H274.586V33.7847C274.586 41.4685 271.814 44.8667 267.618 44.8667C263.578 44.8667 260.962 41.6532 260.962 33.8217V19.5628H264.148Z" fill="white"/>
</g>
<mask id="mask13_9052_2782" style="mask-type:luminance" maskUnits="userSpaceOnUse" x="72" y="0" width="224" height="64">
<path d="M72 0H296V64H72V0Z" fill="white"/>
</mask>
<g mask="url(#mask13_9052_2782)">
<path d="M278.239 19.5628H281.426V40.6556H288.6V44.4603H278.239V19.5628Z" fill="white"/>
</g>
</g>
<defs>
<clipPath id="clip0_9052_2782">
<rect width="64" height="64" fill="white"/>
</clipPath>
<clipPath id="clip1_9052_2782">
<rect width="224" height="64" fill="white" transform="translate(72)"/>
</clipPath>
</defs>
</svg>
