<svg width="64" height="64" viewBox="0 0 64 64" fill="none" xmlns="http://www.w3.org/2000/svg">
<mask id="mask0_9206_6875" style="mask-type:luminance" maskUnits="userSpaceOnUse" x="0" y="0" width="64" height="64">
<path d="M64 0H0V64H64V0Z" fill="white"/>
</mask>
<g mask="url(#mask0_9206_6875)">
<mask id="mask1_9206_6875" style="mask-type:luminance" maskUnits="userSpaceOnUse" x="0" y="0" width="64" height="64">
<path d="M0 0H64V64H0V0Z" fill="white"/>
</mask>
<g mask="url(#mask1_9206_6875)">
<path d="M0.843688 32.0012C0.843688 14.8403 14.8046 0.881416 31.9642 0.881416C49.1221 0.881416 63.0819 14.8403 63.0819 32.0012C63.0819 49.1612 49.1221 63.1203 31.9642 63.1203C14.8046 63.1203 0.843688 49.1612 0.843688 32.0012ZM0.602783 32.0012C0.602783 49.2928 14.6717 63.3604 31.9642 63.3604C49.2549 63.3604 63.3226 49.2928 63.3226 32.0012C63.3226 14.7094 49.2549 0.639832 31.9642 0.639832C14.6717 0.639832 0.602783 14.7094 0.602783 32.0012Z" fill="white"/>
</g>
<mask id="mask2_9206_6875" style="mask-type:luminance" maskUnits="userSpaceOnUse" x="0" y="0" width="64" height="64">
<path d="M0 0H64V64H0V0Z" fill="white"/>
</mask>
<g mask="url(#mask2_9206_6875)">
<path d="M44.5795 22.0263V23.0752H46.5291C46.5282 23.3017 46.5212 26.8132 46.5212 27.0403H44.5129V32.2592H46.5133C46.5133 32.487 46.52 36.0486 46.52 36.2762C46.2776 36.2744 33.3593 36.2534 33.1183 36.2534V35.3358H32.0893V36.2762H22.9322C21.1436 36.2762 19.4204 35.4864 18.4385 34.2144C17.5948 33.228 17.0922 31.9505 17.0922 30.7977C17.0922 29.2622 17.483 28.0988 18.3216 27.1365L18.5004 26.9304C18.5004 26.9304 17.6698 26.9331 17.4871 26.934V23.0752H25.1775V22.0441H29.538V23.0752H40.1482V22.0355C40.3771 22.0348 44.3505 22.0274 44.5795 22.0263ZM39.9005 21.7881V22.8271H29.7868V21.7957H24.9289V22.8271H17.2394V27.1819C17.2394 27.1819 17.7343 27.1812 17.9858 27.1805C17.2198 28.15 16.8445 29.3024 16.8445 30.7977C16.8445 32.0083 17.3686 33.3452 18.2466 34.3709C19.2719 35.6971 21.0686 36.5241 22.9322 36.5241H32.3363V35.5833H32.8709V36.5009L46.7686 36.5241L46.7609 32.0119H44.7603V27.288H46.7686L46.7779 22.8271H44.8287V21.7775L39.9005 21.7881Z" fill="white"/>
</g>
<mask id="mask3_9206_6875" style="mask-type:luminance" maskUnits="userSpaceOnUse" x="0" y="0" width="64" height="64">
<path d="M0 0H64V64H0V0Z" fill="white"/>
</mask>
<g mask="url(#mask3_9206_6875)">
<path d="M40.9301 27.1653H39.9365V28.1369H40.9301V28.8126H39.9365V31.8597H39.9338C39.9247 32.8922 38.8105 33.7332 37.4093 33.7332C36.0088 33.7332 34.8942 32.8922 34.886 31.8597C34.8942 30.8263 36.0088 29.9867 37.4093 29.9867C37.9094 29.9867 38.3741 30.0939 38.7633 30.2795V25.4977H39.9365V26.4882H40.9301V27.1653ZM33.7815 27.5286C33.7815 26.4803 34.786 25.6287 36.1077 25.6287C37.4367 25.6287 38.4387 26.4803 38.4387 27.5286C38.4387 28.581 37.4367 29.4299 36.1077 29.4299C34.786 29.4299 33.7815 28.581 33.7815 27.5286ZM30.1779 28.1369H29.2224V31.0094H28.0509V25.4977H29.2224V27.4622H30.1779V28.1369ZM29.2985 33.5104L25.2803 33.5063C24.4511 33.5063 23.9404 33.0274 23.9404 32.2419V30.6784H25.2133V32.8337H29.2985V33.5104ZM23.044 28.4119C23.044 27.8919 23.3481 27.4313 23.8392 27.1306H23.0271V26.4539H27.3374V27.1306H26.5242C27.0125 27.4313 27.3164 27.8919 27.3164 28.4119C27.3164 29.3159 26.3964 30.0503 25.1803 30.0503C23.9643 30.0503 23.044 29.3159 23.044 28.4119ZM24.0365 25.4977H26.3304V26.1724H24.0365V25.4977ZM45.7505 26.4V23.8414H43.7796V22.8437H40.8971V23.8414H28.8065V22.8437H25.924V23.8414H18.3348V26.4H20.6183C19.0349 27.0911 18.0137 28.6006 18.0137 30.8064C18.0137 33.7668 20.7975 35.4523 23.0391 35.4523H31.41V34.5525H33.7793V35.4523H45.7505V32.8942H43.7796V26.4H45.7505ZM37.4093 30.6342C36.6972 30.6342 36.0547 31.0941 36.0547 31.8597C36.0547 32.617 36.6972 33.0825 37.4093 33.0825C38.1237 33.0825 38.7633 32.617 38.7633 31.8597C38.7633 31.0941 38.1237 30.6342 37.4093 30.6342ZM26.2187 28.4119C26.2187 27.7372 25.7556 27.2279 25.1803 27.2279C24.6078 27.2279 24.1431 27.7372 24.1431 28.4119C24.1431 29.0982 24.6078 29.5963 25.1803 29.5963C25.7556 29.5963 26.2187 29.0982 26.2187 28.4119ZM37.242 27.5286C37.242 26.7402 36.734 26.2119 36.1077 26.2119C35.485 26.2119 34.977 26.7402 34.977 27.5286C34.977 28.338 35.4866 28.8508 36.1077 28.8508C36.7354 28.8508 37.242 28.338 37.242 27.5286Z" fill="white"/>
</g>
<mask id="mask4_9206_6875" style="mask-type:luminance" maskUnits="userSpaceOnUse" x="0" y="0" width="64" height="64">
<path d="M0 0H64V64H0V0Z" fill="white"/>
</mask>
<g mask="url(#mask4_9206_6875)">
<path d="M51.5478 14.7621C51.868 14.4632 51.9784 14.1205 51.681 13.7768C51.623 13.7136 51.5494 13.6459 51.4979 13.6215L50.3634 14.6752L50.4857 14.8041C50.7831 15.1247 51.2136 15.0708 51.5478 14.7621ZM51.8903 46.3075C51.427 46.378 51.1014 46.8085 51.1689 47.2741C51.236 47.7405 51.6663 48.0648 52.1326 47.9984C52.5997 47.9302 52.9237 47.4976 52.8548 47.0325C52.7891 46.5658 52.3561 46.2418 51.8903 46.3075ZM15.6679 12.3687C15.4245 12.1619 15.0389 11.8144 14.7811 11.5789L14.7626 11.594C14.9441 11.8927 15.2324 12.3535 15.385 12.6168L15.9328 13.5624L16.4959 13.0866L15.6679 12.3687ZM40.0257 55.3738C39.6112 55.1704 39.1111 55.3402 38.907 55.7547C38.7029 56.1645 38.8751 56.6682 39.289 56.8683C39.7006 57.0735 40.202 56.906 40.4075 56.4926C40.6105 56.078 40.4393 55.5775 40.0257 55.3738ZM6.73891 23.4042L6.72966 23.4252C7.04033 23.5873 7.52484 23.8341 7.79329 23.9809L8.75014 24.5067L8.98562 23.8084L7.90528 23.6216C7.59055 23.5722 7.08097 23.4715 6.73891 23.4042ZM12.9462 47.2741C13.0119 46.8085 12.6881 46.378 12.2248 46.3075C11.7588 46.2418 11.3246 46.5658 11.2614 47.0325C11.1917 47.4976 11.5141 47.9302 11.9814 47.9984C12.4474 48.0648 12.8791 47.7405 12.9462 47.2741ZM24.0876 55.3738C23.6758 55.5775 23.5047 56.078 23.7063 56.4926C23.914 56.906 24.4143 57.0735 24.8273 56.8683C25.2407 56.6682 25.4104 56.1645 25.2066 55.7547C25.0027 55.3402 24.5051 55.1704 24.0876 55.3738ZM58.2868 39.3409C57.313 40.44 55.9374 40.8105 55.9374 40.8105C55.9374 40.8105 56.1376 39.4012 57.1087 38.3006C58.0829 37.2012 59.403 36.9678 59.403 36.9678C59.403 36.9678 59.2581 38.2416 58.2868 39.3409ZM56.7021 43.4368C55.5544 44.3518 54.1343 44.4814 54.1343 44.4814C54.1343 44.4814 54.578 43.1259 55.7254 42.2101C56.8759 41.2971 58.2157 41.2971 58.2157 41.2971C58.2157 41.2971 57.854 42.5235 56.7021 43.4368ZM53.7026 47.7624C53.3326 47.8155 52.9813 47.7794 52.7087 47.6744C52.8851 47.9083 53.0196 48.2339 53.0734 48.6077C53.1854 49.3869 52.9431 50.3623 52.4839 50.4275C52.0206 50.4946 51.5151 49.6278 51.4042 48.8491C51.3507 48.475 51.3873 48.1235 51.4911 47.8491C51.2584 48.0264 50.9317 48.1596 50.558 48.2117C49.7761 48.3269 48.801 48.0837 48.7353 47.6225C48.6694 47.1621 49.5379 46.6559 50.32 46.5466C50.6926 46.4913 51.0441 46.5268 51.3166 46.6308C51.1387 46.3996 51.0059 46.0734 50.9518 45.6995C50.8384 44.9197 51.0807 43.9436 51.5426 43.8768C52.0036 43.8102 52.5076 44.6785 52.6221 45.4597C52.676 45.8334 52.6363 46.1854 52.5351 46.4556C52.7652 46.2807 53.0905 46.147 53.4656 46.0939C54.2449 45.9822 55.2228 46.2229 55.2873 46.6816C55.3558 47.142 54.4856 47.6509 53.7026 47.7624ZM48.8732 53.3829C47.5258 53.6909 46.2648 53.2204 46.2648 53.2204C46.2648 53.2204 47.1953 52.248 48.5459 51.9373C49.8919 51.6309 51.0333 52.1786 51.0333 52.1786C51.0333 52.1786 50.2238 53.0723 48.8732 53.3829ZM45.0827 55.6935C43.7653 55.6908 42.6953 54.9808 42.6953 54.9808C42.6953 54.9808 43.7677 54.2788 45.0894 54.2851C46.4093 54.2874 47.3492 55.0408 47.3492 55.0408C47.3492 55.0408 46.4041 55.6981 45.0827 55.6935ZM42.5619 57.5542C42.3609 57.9619 41.3774 57.891 40.6893 57.5508C40.3565 57.388 40.0932 57.1622 39.9309 56.9295C39.944 57.2133 39.8704 57.5512 39.706 57.8852C39.3678 58.5742 38.632 59.2304 38.2254 59.0253C37.8147 58.8264 37.8883 57.847 38.2308 57.1527C38.3924 56.8222 38.6173 56.5603 38.8503 56.3982C38.5645 56.412 38.2292 56.3377 37.8962 56.1747C37.2037 55.8351 36.5483 55.1007 36.7526 54.69C36.9515 54.282 37.9343 54.3536 38.6268 54.694C38.9582 54.8564 39.2204 55.0835 39.3836 55.3145C39.3678 55.0304 39.4414 54.6934 39.6058 54.3628C39.9469 53.6688 40.6814 53.0156 41.0893 53.2179C41.4984 53.4191 41.4248 54.4016 41.0853 55.0925C40.9209 55.4246 40.6985 55.6843 40.4642 55.8489C40.7498 55.8367 41.0869 55.9049 41.4167 56.0695C42.1108 56.412 42.7637 57.1473 42.5619 57.5542ZM31.9652 58.5365C31.3859 58.5365 30.9163 58.068 30.9163 57.4876C30.9163 56.9098 31.3859 56.4411 31.9652 56.4411C32.5432 56.4411 33.0131 56.9098 33.0131 57.4876C33.0131 58.068 32.5432 58.5365 31.9652 58.5365ZM26.2174 56.1747C25.8871 56.3377 25.5504 56.412 25.2632 56.3982C25.4976 56.5603 25.7227 56.8222 25.8846 57.1527C26.2269 57.847 26.2991 58.8264 25.8911 59.0253C25.4818 59.2304 24.746 58.5742 24.4064 57.8852C24.2421 57.5512 24.1707 57.2133 24.184 56.9295C24.0208 57.1622 23.76 57.388 23.4256 57.5508C22.7348 57.891 21.7556 57.9619 21.5515 57.5542C21.3512 57.1473 22.003 56.412 22.6966 56.0695C23.0283 55.9049 23.3651 55.8367 23.6507 55.8489C23.4166 55.6843 23.194 55.4246 23.0283 55.0925C22.6887 54.4016 22.6162 53.4191 23.0256 53.2179C23.4349 53.0156 24.1669 53.6688 24.5105 54.3628C24.6737 54.6934 24.746 55.0304 24.7315 55.3145C24.8934 55.0835 25.154 54.8564 25.4883 54.694C26.1808 54.3536 27.1625 54.282 27.3639 54.69C27.5655 55.1007 26.9096 55.8351 26.2174 56.1747ZM19.0322 55.6935C17.7108 55.6981 16.767 55.0408 16.767 55.0408C16.767 55.0408 17.7069 54.2874 19.0259 54.2851C20.3472 54.2788 21.4201 54.9808 21.4201 54.9808C21.4201 54.9808 20.3499 55.6908 19.0322 55.6935ZM15.2417 53.3829C13.8899 53.0723 13.0816 52.1786 13.0816 52.1786C13.0816 52.1786 14.2216 51.6309 15.5693 51.9373C16.9196 52.248 17.8505 53.2204 17.8505 53.2204C17.8505 53.2204 16.5893 53.6909 15.2417 53.3829ZM12.7118 48.8491C12.6001 49.6278 12.0932 50.4946 11.634 50.4275C11.1707 50.3623 10.9298 49.3869 11.039 48.6077C11.0968 48.2339 11.2285 47.9083 11.4048 47.6744C11.1336 47.7794 10.781 47.8155 10.4098 47.7624C9.62932 47.6509 8.75917 47.142 8.82645 46.6816C8.89351 46.2229 9.86887 45.9822 10.6482 46.0939C11.0232 46.147 11.3497 46.2807 11.5786 46.4556C11.4773 46.1854 11.4378 45.8334 11.4931 45.4597C11.6062 44.6785 12.1117 43.8102 12.5725 43.8768C13.0331 43.9436 13.2765 44.9197 13.1634 45.6995C13.1092 46.0734 12.9764 46.3996 12.7987 46.6308C13.0724 46.5268 13.4226 46.4913 13.7962 46.5466C14.5758 46.6559 15.4455 47.1621 15.381 47.6225C15.3128 48.0837 14.3374 48.3269 13.5556 48.2117C13.183 48.1596 12.8552 48.0264 12.6249 47.8491C12.729 48.1235 12.7647 48.475 12.7118 48.8491ZM5.89902 41.2971C5.89902 41.2971 7.24036 41.2971 8.38935 42.2101C9.5372 43.1259 9.9795 44.4814 9.9795 44.4814C9.9795 44.4814 8.56048 44.3518 7.41015 43.4368C6.2623 42.5235 5.89902 41.2971 5.89902 41.2971ZM4.71459 36.9678C4.71459 36.9678 6.03223 37.2012 7.00465 38.3006C7.97617 39.4012 8.17757 40.8105 8.17757 40.8105C8.17757 40.8105 6.80348 40.44 5.83061 39.3409C4.8566 38.2416 4.71459 36.9678 4.71459 36.9678ZM8.15251 36.3961C8.16041 37.2028 7.65625 37.8594 7.65625 37.8594C7.65625 37.8594 7.1417 37.2128 7.13109 36.4065C7.12319 35.6027 7.62464 34.9414 7.62464 34.9414C7.62464 34.9414 8.14212 35.591 8.15251 36.3961ZM9.69253 38.6117C9.41076 39.8261 8.55529 40.6626 8.55529 40.6626C8.55529 40.6626 8.20782 39.6482 8.48959 38.4381C8.76843 37.2229 9.64263 36.5537 9.64263 36.5537C9.64263 36.5537 9.97159 37.3997 9.69253 38.6117ZM4.48701 28.8403L6.58222 29.1128L6.71905 28.0704L4.60803 27.7978L4.79339 26.7995L9.98063 27.4786L9.79639 28.477L7.64699 28.1927L7.51017 29.2365L9.65821 29.5214L9.57919 30.5185L4.39083 29.838L4.48701 28.8403ZM11.0903 42.0236C11.0232 43.2661 10.3269 44.2408 10.3269 44.2408C10.3269 44.2408 9.80971 43.3031 9.87293 42.0561C9.94111 40.8137 10.6864 40.0045 10.6864 40.0045C10.6864 40.0045 11.1535 40.7796 11.0903 42.0236ZM5.97691 22.5022L11.3034 23.222L10.9521 24.1403L9.75959 23.9711L9.46089 24.8528L10.5085 25.4491L10.2321 26.4059L5.59648 23.6104L5.97691 22.5022ZM7.6707 18.7437L11.4694 19.3436L11.4773 19.3312L8.31461 17.6419L8.78694 16.8871L13.3332 19.484L12.829 20.2646L9.15157 19.6868L9.10799 19.6662L12.1998 21.3636L11.7997 22.1593L7.24691 19.5525L7.6707 18.7437ZM10.5466 14.4838L11.7496 15.0279C12.0629 15.1726 12.4181 15.3453 12.7617 15.5354L12.7698 15.5241C12.5249 15.2327 12.2919 14.9233 12.0695 14.6154L11.3246 13.5768L12.0273 12.8182L13.6779 15.7282L15.2324 17.049L14.577 17.8151L13.0552 16.5194L9.88196 15.3169L10.5466 14.4838ZM14.6269 10.4396L18.8257 13.8046L18.0305 14.4099L17.0736 13.6249L16.3629 14.225L16.9711 15.3045L16.2484 15.9816L13.7068 11.2177L14.6269 10.4396ZM18.0189 8.09808L19.7152 9.49857C20.043 9.77493 20.5854 10.2278 20.9328 10.5527L20.9459 10.5475C20.6554 10.0849 20.1589 9.32992 19.6969 8.49816L19.1347 7.48081L19.9247 7.07937L22.4704 11.6624L21.6463 12.0632L19.9746 10.7076C19.6127 10.4067 19.0889 9.95081 18.7611 9.59657L18.7466 9.60446C19.0205 10.0506 19.4404 10.7307 19.9484 11.6446L20.5262 12.6877L19.768 13.153L17.2317 8.5747L18.0189 8.09808ZM24.0761 5.44474C24.4498 5.32689 24.7512 5.3104 24.9291 5.33411L25.0248 6.21464C24.8645 6.19274 24.6699 6.2081 24.4263 6.28509C23.776 6.49506 23.3995 7.10692 23.8113 8.39565C24.1917 9.58076 24.7893 9.85598 25.2357 9.71329C25.3238 9.68484 25.3856 9.65662 25.4197 9.63133L25.0368 8.439L24.5986 8.57989L24.3459 7.79599L25.6712 7.36949L26.515 10.0059C26.3332 10.1619 25.9067 10.3949 25.5489 10.5094C24.9842 10.6902 24.5076 10.6647 24.0734 10.441C23.5193 10.1671 23.0558 9.50919 22.7982 8.65485C22.2451 6.85563 23.031 5.7816 24.0761 5.44474ZM30.5227 4.36259L30.6361 7.74C30.6625 8.50086 30.902 8.72326 31.1612 8.71468C31.4534 8.70474 31.6546 8.4898 31.6275 7.70658L31.5069 4.33392L32.5195 4.34024L32.6272 7.49661C32.6721 8.82395 32.1971 9.56315 31.1994 9.59724C30.1161 9.63495 29.6686 8.90501 29.6239 7.60724L29.5158 4.43913L30.5227 4.36259ZM35.0493 4.50099L35.9468 4.61411L36.6973 8.3514L36.7115 8.35411L37.2053 4.82544L38.0779 5.00763L37.1999 10.1646L36.3035 9.97835L35.598 6.24693L35.5835 6.24354L35.0507 9.75845L34.1675 9.65527L35.0493 4.50099ZM40.3337 5.62423L41.2882 5.94822L39.6071 10.8952L38.6548 10.5694L40.3337 5.62423ZM42.9951 6.61811L44.0075 7.0735L42.7174 10.9926L42.7319 10.9984L45.1328 7.6533L46.0881 8.20352L42.6621 12.2664L41.6669 11.7566L42.9951 6.61811ZM49.5248 10.6114L48.98 11.3269L47.9875 10.5785L47.2704 11.5288L48.214 12.2422L47.7114 12.9101L46.7661 12.1975L45.9237 13.3135L46.9909 14.1191L46.4513 14.8423L44.5812 13.4319L47.7283 9.25564L49.5248 10.6114ZM52.177 13.1201C52.5523 13.5249 52.8103 13.9538 52.8155 14.412C52.8234 14.8326 52.6324 15.1381 52.3051 15.4413C51.8982 15.819 51.3507 15.9612 50.8095 15.7407L50.798 15.7499C50.9387 16.1039 50.8149 16.4579 50.4781 16.9081C50.1236 17.3735 49.7249 17.9797 49.6486 18.1777L48.9575 17.3358C49.022 17.1926 49.3262 16.7535 49.6919 16.3094C50.0999 15.8 50.1252 15.5571 49.8962 15.309L49.7971 15.2038L48.2835 16.6101L47.5637 15.9005L51.3981 12.3416C51.6273 12.564 51.9167 12.8383 52.177 13.1201ZM53.3141 16.9075C54.0131 16.458 54.8922 16.5489 55.4806 17.4595C55.661 17.7447 55.7597 18.0659 55.7651 18.2457L54.9491 18.5778C54.9476 18.4075 54.8979 18.1743 54.7387 17.9275C54.5059 17.5656 54.1752 17.532 53.9422 17.6828C53.6843 17.8485 53.6301 18.0659 53.6502 18.7214C53.6712 19.5195 53.3696 20.0151 52.9104 20.3106C52.1156 20.8218 51.2136 20.5716 50.6637 19.7191C50.4408 19.3716 50.3096 18.9695 50.3026 18.7747L51.1123 18.427C51.1267 18.6627 51.2477 19.0049 51.4058 19.2497C51.6625 19.6525 51.9953 19.7146 52.2798 19.5301C52.5956 19.3242 52.6257 19.032 52.627 18.5114C52.6062 17.6828 52.9194 17.1615 53.3141 16.9075ZM18.1951 52.9124C18.1951 52.9124 17.3093 52.2766 16.8183 51.1073C16.3313 49.9369 16.658 48.8631 16.658 48.8631C16.658 48.8631 17.4331 49.3704 17.9203 50.5368C18.4068 51.7115 18.1951 52.9124 18.1951 52.9124ZM21.6711 54.5529C21.6711 54.5529 20.6603 54.1366 19.922 53.1025C19.1822 52.0759 19.2571 50.9585 19.2571 50.9585C19.2571 50.9585 20.1261 51.2742 20.8644 52.3037C21.6056 53.3342 21.6711 54.5529 21.6711 54.5529ZM44.1904 53.1025C43.4546 54.1366 42.444 54.5529 42.444 54.5529C42.444 54.5529 42.5108 53.3342 43.2491 52.3037C43.9865 51.2742 44.8562 50.9585 44.8562 50.9585C44.8562 50.9585 44.9327 52.0759 44.1904 53.1025ZM47.2966 51.1073C46.8044 52.2766 45.9185 52.9124 45.9185 52.9124C45.9185 52.9124 45.7078 51.7115 46.1953 50.5368C46.6818 49.3704 47.4558 48.8631 47.4558 48.8631C47.4558 48.8631 47.7821 49.9369 47.2966 51.1073ZM31.8824 52.6828C20.4614 52.6383 11.2364 43.3404 11.2824 31.919C11.3271 20.4969 20.6251 11.2727 32.047 11.3181C43.4663 11.3631 52.6877 20.6612 52.6417 32.0833C52.5981 43.5041 43.302 52.7289 31.8824 52.6828ZM57.3101 20.9371L52.5929 23.1358L52.1705 22.2218L56.8877 20.0257L57.3101 20.9371ZM58.8621 25.4522L57.9712 25.7261L57.7316 24.8359L53.6236 26.0986L53.3274 25.1364L57.4354 23.8743L57.1444 23.0062L58.0342 22.7357L58.8621 25.4522ZM53.7893 44.2408C53.7893 44.2408 53.0905 43.2661 53.0262 42.0236C52.9616 40.7796 53.4301 40.0045 53.4301 40.0045C53.4301 40.0045 54.1752 40.8137 54.2395 42.0561C54.307 43.3031 53.7893 44.2408 53.7893 44.2408ZM55.5585 40.6626C55.5585 40.6626 54.7042 39.8261 54.4226 38.6117C54.1433 37.3997 54.4723 36.5537 54.4723 36.5537C54.4723 36.5537 55.344 37.2229 55.6244 38.4381C55.9085 39.6482 55.5585 40.6626 55.5585 40.6626ZM56.9827 36.4065C56.9746 37.2128 56.4589 37.8594 56.4589 37.8594C56.4589 37.8594 55.9545 37.2028 55.9638 36.3961C55.9744 35.591 56.4903 34.9414 56.4903 34.9414C56.4903 34.9414 56.9915 35.6027 56.9827 36.4065ZM59.3371 27.9216L57.0495 28.8258L57.052 28.8423L59.4821 29.1055L59.5636 30.1342L56.2903 29.3686L54.2899 29.6201L54.1594 28.6176L56.1257 28.3743L59.1599 26.8541L59.3371 27.9216ZM32.0813 2.36333C15.7167 2.29876 2.39428 15.5142 2.32835 31.8835C2.26513 48.2517 15.4823 61.5712 31.8469 61.6362C48.2126 61.7013 61.5339 48.4867 61.5985 32.1181C61.6644 15.7492 48.447 2.42858 32.0813 2.36333Z" fill="white"/>
</g>
<mask id="mask5_9206_6875" style="mask-type:luminance" maskUnits="userSpaceOnUse" x="0" y="0" width="64" height="64">
<path d="M0 0H64V64H0V0Z" fill="white"/>
</mask>
<g mask="url(#mask5_9206_6875)">
<path d="M28.7618 41.5821C28.6536 41.6045 28.5579 41.6438 28.4721 41.6986C28.3893 41.7515 28.3206 41.8251 28.2707 41.9158C28.222 42.0066 28.1971 42.1188 28.1971 42.2545C28.1971 42.3893 28.222 42.5017 28.2707 42.5934C28.3206 42.6844 28.3893 42.7551 28.4721 42.811C28.5579 42.8637 28.6536 42.9027 28.7618 42.9271C28.8706 42.9499 28.9801 42.9619 29.0935 42.9619C29.2066 42.9619 29.3131 42.9499 29.4238 42.9271C29.5317 42.9027 29.6277 42.8637 29.7121 42.811C29.7974 42.7551 29.8647 42.6844 29.9148 42.5934C29.962 42.5017 29.9857 42.3893 29.9857 42.2545C29.9857 42.1188 29.962 42.0066 29.9148 41.9158C29.8647 41.8251 29.7974 41.7515 29.7121 41.6986C29.6277 41.6438 29.5317 41.6045 29.4238 41.5821C29.3131 41.5593 29.2066 41.5456 29.0935 41.5456C28.9801 41.5456 28.8706 41.5593 28.7618 41.5821ZM27.8235 43.8216L27.9072 43.8699C27.9072 43.8964 27.9113 43.9248 27.9194 43.9614C27.9246 43.9971 27.9379 44.0305 27.9562 44.0569C28.0034 44.1237 28.0666 44.1829 28.1457 44.2314C28.2274 44.2806 28.3114 44.3224 28.4039 44.352C28.4933 44.3834 28.5879 44.4086 28.6801 44.4188C28.7738 44.4328 28.8607 44.4396 28.9343 44.4396C29.6647 44.4396 30.0541 44.0266 30.1029 43.2066C29.9042 43.3166 29.7067 43.4103 29.5105 43.4891C29.3118 43.5674 29.1066 43.606 28.8907 43.606C28.7207 43.606 28.5484 43.5816 28.368 43.5367C28.1906 43.4891 28.0285 43.4179 27.8862 43.3172C27.7429 43.2186 27.6246 43.089 27.5349 42.9343C27.4442 42.7792 27.397 42.5911 27.397 42.3708C27.397 42.1068 27.4494 41.8786 27.5573 41.6914C27.6586 41.5036 27.7982 41.3489 27.968 41.2259C28.1364 41.1033 28.326 41.0152 28.534 40.957C28.7446 40.8974 28.9499 40.8718 29.1565 40.8718C29.4145 40.8718 29.65 40.9188 29.8647 41.0159C30.0779 41.1107 30.2634 41.2475 30.4176 41.4218C30.5716 41.5961 30.6926 41.8036 30.7742 42.0423C30.8597 42.2823 30.9033 42.5455 30.9033 42.8334C30.9033 43.1736 30.8543 43.4798 30.7586 43.751C30.6637 44.0251 30.5256 44.2601 30.349 44.4552C30.1684 44.6518 29.9595 44.7988 29.7121 44.9015C29.4671 45.0009 29.1881 45.0535 28.8853 45.0535C28.6762 45.0535 28.4933 45.0359 28.3484 45.0031C28.1996 44.9677 28.0759 44.9277 27.9786 44.8769C27.8799 44.829 27.7995 44.7855 27.7404 44.7455C27.6783 44.7067 27.627 44.6866 27.5902 44.6866C27.5415 44.6866 27.4941 44.7035 27.4586 44.7342L27.4019 44.6787L27.8235 43.8216Z" fill="white"/>
</g>
<mask id="mask6_9206_6875" style="mask-type:luminance" maskUnits="userSpaceOnUse" x="0" y="0" width="64" height="64">
<path d="M0 0H64V64H0V0Z" fill="white"/>
</mask>
<g mask="url(#mask6_9206_6875)">
<path d="M36.3904 41.5821C36.2816 41.6045 36.1852 41.6438 36.1 41.6986C36.0185 41.7515 35.9497 41.8251 35.8996 41.9158C35.8521 42.0066 35.8257 42.1188 35.8257 42.2545C35.8257 42.3893 35.8521 42.5017 35.8996 42.5934C35.9497 42.6844 36.0185 42.7551 36.1 42.811C36.1852 42.8637 36.2816 42.9027 36.3904 42.9271C36.4985 42.9499 36.6078 42.9619 36.7225 42.9619C36.8356 42.9619 36.9422 42.9499 37.0515 42.9271C37.1603 42.9027 37.2565 42.8637 37.3423 42.811C37.4267 42.7551 37.4922 42.6844 37.5437 42.5934C37.592 42.5017 37.6161 42.3893 37.6161 42.2545C37.6161 42.1188 37.592 42.0066 37.5437 41.9158C37.4922 41.8251 37.4267 41.7515 37.3423 41.6986C37.2565 41.6438 37.1603 41.6045 37.0515 41.5821C36.9422 41.5593 36.8356 41.5456 36.7225 41.5456C36.6078 41.5456 36.4985 41.5593 36.3904 41.5821ZM35.4523 43.8216L35.5363 43.8699C35.5363 43.8964 35.5417 43.9248 35.5494 43.9614C35.5548 43.9971 35.5665 44.0305 35.585 44.0569C35.6338 44.1237 35.6955 44.1829 35.7761 44.2314C35.8546 44.2806 35.9406 44.3224 36.0323 44.352C36.1231 44.3834 36.2168 44.4086 36.3105 44.4188C36.4035 44.4328 36.4893 44.4396 36.5631 44.4396C37.2946 44.4396 37.683 44.0266 37.7317 43.2066C37.5344 43.3166 37.3357 43.4103 37.1395 43.4891C36.9422 43.5674 36.734 43.606 36.5195 43.606C36.3513 43.606 36.1761 43.5816 35.9971 43.5367C35.818 43.4891 35.6559 43.4179 35.5137 43.3172C35.3706 43.2186 35.2534 43.089 35.1613 42.9343C35.0719 42.7792 35.0247 42.5911 35.0247 42.3708C35.0247 42.1068 35.078 41.8786 35.1847 41.6914C35.2886 41.5036 35.4261 41.3489 35.5954 41.2259C35.7652 41.1033 35.9546 41.0152 36.1628 40.957C36.3708 40.8974 36.5805 40.8718 36.7839 40.8718C37.0424 40.8718 37.2777 40.9188 37.4922 41.0159C37.7069 41.1107 37.8938 41.2475 38.046 41.4218C38.2005 41.5961 38.3203 41.8036 38.4043 42.0423C38.4885 42.2823 38.5305 42.5455 38.5305 42.8334C38.5305 43.1736 38.4847 43.4798 38.386 43.751C38.2921 44.0251 38.1542 44.2601 37.9765 44.4552C37.7974 44.6518 37.5872 44.7988 37.3409 44.9015C37.0948 45.0009 36.8185 45.0535 36.5143 45.0535C36.3037 45.0535 36.1231 45.0359 35.9772 45.0031C35.8287 44.9677 35.7047 44.9277 35.606 44.8769C35.5074 44.829 35.4284 44.7855 35.3692 44.7455C35.3058 44.7067 35.2574 44.6866 35.2191 44.6866C35.1692 44.6866 35.1245 44.7035 35.0861 44.7342L35.031 44.6787L35.4523 43.8216Z" fill="white"/>
</g>
<mask id="mask7_9206_6875" style="mask-type:luminance" maskUnits="userSpaceOnUse" x="0" y="0" width="64" height="64">
<path d="M0 0H64V64H0V0Z" fill="white"/>
</mask>
<g mask="url(#mask7_9206_6875)">
<path d="M31.1966 41.4844L31.2809 41.4142C31.3174 41.4393 31.3585 41.4515 31.3989 41.4515C31.4256 41.4515 31.4649 41.4219 31.5308 41.3621C31.5938 41.302 31.6864 41.2372 31.8087 41.1625C31.93 41.0862 32.0853 41.0214 32.2759 40.9631C32.4666 40.9019 32.6972 40.8717 32.9697 40.8717C33.1528 40.8717 33.3343 40.8904 33.5199 40.9315C33.7053 40.9742 33.8712 41.0408 34.0213 41.1343C34.1737 41.2246 34.3 41.3404 34.3937 41.4844C34.4898 41.6278 34.537 41.801 34.537 42.0024C34.537 42.1923 34.4898 42.3638 34.3898 42.5217C34.2909 42.6829 34.1564 42.7815 33.9873 42.8251V42.8405C34.1868 42.8901 34.3514 42.9949 34.4804 43.1486C34.6095 43.3031 34.6741 43.4961 34.6741 43.7318C34.6741 43.9971 34.6138 44.217 34.495 44.3879C34.3754 44.5616 34.2239 44.6979 34.0502 44.7989C33.8726 44.902 33.6759 44.9677 33.4644 45.0007C33.2537 45.0357 33.0528 45.0535 32.8669 45.0535C32.6549 45.0535 32.4574 45.0303 32.2747 44.9862C32.09 44.9443 31.93 44.8898 31.7902 44.8316C31.6505 44.7724 31.5333 44.7182 31.4425 44.667C31.3511 44.6189 31.2833 44.5941 31.2479 44.5941C31.2255 44.5941 31.2043 44.5988 31.1872 44.6112C31.1716 44.6205 31.1544 44.6306 31.1348 44.6395L31.0713 44.6182L31.4795 43.495L31.5574 43.5383C31.5536 43.5508 31.5495 43.5675 31.5495 43.595V43.6485C31.5495 43.7686 31.6017 43.8768 31.7058 43.9693C31.8087 44.0655 31.93 44.1448 32.0731 44.2082C32.2167 44.273 32.368 44.3227 32.5233 44.3588C32.6825 44.3897 32.8141 44.4092 32.9207 44.4092C33.0051 44.4092 33.106 44.4006 33.221 44.3807C33.3343 44.362 33.4447 44.3279 33.5422 44.2814C33.642 44.2342 33.7265 44.1714 33.7974 44.0926C33.8669 44.0089 33.9042 43.9025 33.9042 43.7729C33.9042 43.6463 33.8701 43.5456 33.8042 43.4715C33.7355 43.3923 33.654 43.3363 33.5565 43.2922C33.4592 43.2514 33.3562 43.2245 33.2458 43.2107C33.1365 43.1976 33.0419 43.1909 32.9629 43.1909C32.8482 43.1909 32.7523 43.2012 32.6692 43.2265C32.5874 43.2493 32.5326 43.308 32.505 43.4015H32.4208V42.3392H32.505C32.5138 42.4433 32.5655 42.5138 32.6549 42.5454C32.7468 42.5819 32.8482 42.5975 32.9629 42.5975C33.0365 42.5975 33.1248 42.591 33.2237 42.574C33.321 42.5591 33.4129 42.5307 33.4989 42.4896C33.584 42.4474 33.6581 42.3887 33.7172 42.3176C33.7777 42.2455 33.8093 42.1525 33.8093 42.0453C33.8093 41.9398 33.7829 41.8576 33.7281 41.7915C33.6759 41.7269 33.6068 41.6773 33.5199 41.6411C33.4327 41.6043 33.3381 41.5786 33.2314 41.5657C33.1273 41.554 33.0209 41.5456 32.913 41.5456C32.7863 41.5456 32.6574 41.5619 32.5263 41.596C32.3944 41.6224 32.2747 41.666 32.1668 41.7195C32.0598 41.7689 31.9706 41.8292 31.9006 41.8904C31.8284 41.9529 31.7943 42.0159 31.7943 42.0773C31.7943 42.101 31.7979 42.1247 31.8006 42.1509C31.8058 42.1821 31.8128 42.2101 31.8221 42.2347L31.76 42.2828L31.1966 41.4844Z" fill="white"/>
</g>
<mask id="mask8_9206_6875" style="mask-type:luminance" maskUnits="userSpaceOnUse" x="0" y="0" width="64" height="64">
<path d="M0 0H64V64H0V0Z" fill="white"/>
</mask>
<g mask="url(#mask8_9206_6875)">
<path d="M25.7634 44.939C25.812 44.939 25.8517 44.9257 25.8871 44.8945C25.9217 44.8674 25.9411 44.8094 25.9411 44.7191V42.1075C25.9057 42.1075 25.8686 42.1075 25.8253 42.1154C25.7794 42.1188 25.7372 42.1276 25.6939 42.1412C25.6505 42.1549 25.6133 42.1728 25.5778 42.1967C25.5424 42.2202 25.5187 42.252 25.5054 42.2947H25.4214V41.3101H25.5054C25.5054 41.3561 25.5266 41.3884 25.5688 41.4049C25.6133 41.4252 25.6505 41.4338 25.6885 41.4338C25.7675 41.4338 25.8359 41.4049 25.8899 41.3498C25.9452 41.297 25.9714 41.2295 25.9714 41.1511C25.9714 41.0782 25.9569 41.0315 25.9267 41.0125C25.895 40.991 25.8555 40.9737 25.8029 40.9633V40.8716H26.9377V40.9633C26.8835 40.9737 26.835 40.9942 26.7966 41.0184C26.7611 41.0455 26.7415 41.0836 26.7415 41.1362V44.7191C26.7415 44.8094 26.7611 44.8674 26.7966 44.8945C26.835 44.9257 26.8772 44.939 26.9244 44.939V45.0316H25.7634V44.939Z" fill="white"/>
</g>
</g>
</svg>
